<svg xmlns="http://www.w3.org/2000/svg" data-name="Layer 1" viewBox="0 0 100 125" x="0px" y="0px"><title>car service jadi</title><path d="M77.43,62.43a2.6,2.6,0,0,1-.53-.05L60.58,59a54,54,0,0,0-21.73,0L22.52,62.38a2.6,2.6,0,0,1-3.12-2.54V49.11a4.89,4.89,0,0,1,4.88-4.88H75.14A4.89,4.89,0,0,1,80,49.11V59.84a2.6,2.6,0,0,1-2.59,2.6Zm-53.15-17a3.69,3.69,0,0,0-3.68,3.68V59.84a1.4,1.4,0,0,0,1.68,1.37L38.6,57.83a55.17,55.17,0,0,1,22.22,0l16.32,3.37a1.4,1.4,0,0,0,1.68-1.37V49.11a3.69,3.69,0,0,0-3.68-3.68Z"/><path d="M76.43,62.89H23a3.55,3.55,0,0,1-2.21-.77.6.6,0,0,1,.62-1,1.38,1.38,0,0,0,.87.11L38.6,57.83a55.17,55.17,0,0,1,22.22,0l16.32,3.37h0A1.37,1.37,0,0,0,78,61.1a.6.6,0,0,1,.62,1A3.55,3.55,0,0,1,76.43,62.89Zm-50.56-1.2H73.55L60.58,59a54,54,0,0,0-21.73,0Z"/><path d="M73.1,45.42H26.32a.6.6,0,0,1-.47-1l7.71-9.63a8.14,8.14,0,0,1,6.38-3.07H59.48a8.14,8.14,0,0,1,6.38,3.07h0l7.71,9.63a.6.6,0,0,1-.47,1Zm-45.54-1.2H71.85l-6.93-8.66a6.94,6.94,0,0,0-5.45-2.62H39.94a6.94,6.94,0,0,0-5.45,2.62Z"/><path d="M81,45.42H73a.6.6,0,0,1-.53-.89l1.43-2.62a2.59,2.59,0,0,1,2.28-1.35H81a1.6,1.6,0,0,1,1.6,1.6v1.66A1.6,1.6,0,0,1,81,45.42Zm-7-1.2h7a.4.4,0,0,0,.4-.4V42.16a.4.4,0,0,0-.4-.4H76.2a1.4,1.4,0,0,0-1.23.73Z"/><path d="M73.31,54.24h-9A2.18,2.18,0,0,1,63.64,50l8.61-2.69a3.55,3.55,0,0,1,4.61,3.39A3.55,3.55,0,0,1,73.31,54.24Zm0-5.9a2.37,2.37,0,0,0-.71.11L64,51.13A1,1,0,0,0,64.29,53h9a2.35,2.35,0,0,0,2.35-2.35,2.35,2.35,0,0,0-2.34-2.35Z"/><path d="M64.29,54.24A2.18,2.18,0,0,1,63.64,50l7.85-2.45a.6.6,0,0,1,.6.14,6.58,6.58,0,0,1,1.84,6.08.6.6,0,0,1-.59.48Zm9.06-.6h0ZM71.5,48.79,64,51.13A1,1,0,0,0,64.29,53h8.55a5.43,5.43,0,0,0,0-.65A5.34,5.34,0,0,0,71.5,48.79Z"/><path d="M27,45.42H19a1.6,1.6,0,0,1-1.6-1.6V42.16a1.6,1.6,0,0,1,1.6-1.6h4.8a2.59,2.59,0,0,1,2.28,1.35l1.43,2.62a.6.6,0,0,1-.53.89Zm-8-3.66a.4.4,0,0,0-.4.4v1.66a.4.4,0,0,0,.4.4h7L25,42.49a1.4,1.4,0,0,0-1.23-.73Z"/><path d="M35.13,54.24h-9a3.55,3.55,0,0,1-3.55-3.55,3.55,3.55,0,0,1,4.61-3.39L35.78,50a2.18,2.18,0,0,1-.65,4.25Zm-9-5.9a2.35,2.35,0,0,0,0,4.7h9a1,1,0,0,0,.29-1.91l-8.61-2.69A2.37,2.37,0,0,0,26.1,48.34Z"/><path d="M35.13,54.24H26a.52.52,0,0,1-.51-.47,6.62,6.62,0,0,1-.14-1.37,6.54,6.54,0,0,1,2-4.71.6.6,0,0,1,.6-.14L35.78,50a2.18,2.18,0,0,1-.65,4.25Zm-7.21-5.44A5.37,5.37,0,0,0,26.58,53h8.55a1,1,0,0,0,.29-1.91Z"/><path d="M75.18,68.25H70.36a2.6,2.6,0,0,1-2.6-2.6V62.29a.6.6,0,0,1,.6-.6h8.82a.6.6,0,0,1,.6.6v3.37A2.6,2.6,0,0,1,75.18,68.25ZM69,62.89v2.77a1.4,1.4,0,0,0,1.4,1.4h4.82a1.4,1.4,0,0,0,1.4-1.4V62.89Z"/><path d="M29.06,68.25H24.24a2.6,2.6,0,0,1-2.6-2.6V62.29a.6.6,0,0,1,.6-.6h8.82a.6.6,0,0,1,.6.6v3.37A2.6,2.6,0,0,1,29.06,68.25Zm-6.22-5.36v2.77a1.4,1.4,0,0,0,1.4,1.4h4.82a1.4,1.4,0,0,0,1.4-1.4V62.89Z"/><path d="M68.95,43.43H30.47a.6.6,0,0,1-.47-1l5.11-6.39a6.15,6.15,0,0,1,4.83-2.32H59.48a6.15,6.15,0,0,1,4.82,2.32l5.11,6.39a.6.6,0,0,1-.47,1Zm-37.23-1.2h36l-4.33-5.41h0a5,5,0,0,0-3.89-1.87H39.94a5,5,0,0,0-3.89,1.87Z"/><path d="M56.57,56.11H42.85a1.6,1.6,0,0,1-1.6-1.6V52.14a1.6,1.6,0,0,1,1.6-1.6H56.57a1.6,1.6,0,0,1,1.6,1.6v2.37A1.6,1.6,0,0,1,56.57,56.11ZM42.85,51.75a.4.4,0,0,0-.4.4v2.37a.4.4,0,0,0,.4.4H56.57a.4.4,0,0,0,.4-.4V52.14a.4.4,0,0,0-.4-.4Z"/><path d="M49.26,41.18a.6.6,0,0,1-.38-.13l-4.32-3.49a.6.6,0,0,1,.75-.93l4.32,3.49a.6.6,0,0,1-.38,1.07Z"/><path d="M54.48,41.18A.6.6,0,0,1,54.1,41l-4.33-3.49a.6.6,0,0,1,.75-.93l4.33,3.49a.6.6,0,0,1-.38,1.07Z"/><text x="0" y="115" fill="#000000" font-size="5px" font-weight="bold" font-family="'Helvetica Neue', Helvetica, Arial-Unicode, Arial, Sans-serif">Created by Edwin Prayogi M</text><text x="0" y="120" fill="#000000" font-size="5px" font-weight="bold" font-family="'Helvetica Neue', Helvetica, Arial-Unicode, Arial, Sans-serif">from the Noun Project</text></svg>