<svg xmlns="http://www.w3.org/2000/svg" xmlns:xlink="http://www.w3.org/1999/xlink" version="1.1" x="0px" y="0px" viewBox="0 0 55 68.75" style="enable-background:new 0 0 55 55;" xml:space="preserve"><style type="text/css">
	.st0{fill:none;}
	.st1{fill:none;stroke:#2A3D4F;stroke-width:2;stroke-linecap:round;stroke-linejoin:round;stroke-miterlimit:10;}
</style><g><g><g><g><path d="M44.7744141,21.3671932h-9.6035156c-0.2763672,0-0.5-0.2236328-0.5-0.5s0.2236328-0.5,0.5-0.5h9.6035156      c0.2763672,0,0.5,0.2236328,0.5,0.5S45.0507813,21.3671932,44.7744141,21.3671932z"/></g><g><path d="M42.6796875,17.0253963H37.265625c-0.2763672,0-0.5-0.2236328-0.5-0.5s0.2236328-0.5,0.5-0.5h5.4140625      c0.2763672,0,0.5,0.2236328,0.5,0.5S42.9560547,17.0253963,42.6796875,17.0253963z"/></g><g><path d="M44.7744141,12.6836004h-9.6035156c-0.2763672,0-0.5-0.2236328-0.5-0.5s0.2236328-0.5,0.5-0.5h9.6035156      c0.2763672,0,0.5,0.2236328,0.5,0.5S45.0507813,12.6836004,44.7744141,12.6836004z"/></g><g><path d="M42.6796875,8.3418036H37.265625c-0.2763672,0-0.5-0.2236328-0.5-0.5000005c0-0.2763672,0.2236328-0.5,0.5-0.5      h5.4140625c0.2763672,0,0.5,0.2236328,0.5,0.5C43.1796875,8.1181707,42.9560547,8.3418036,42.6796875,8.3418036z"/></g><g><path d="M44.7744141,4.0000062h-9.6035156c-0.2763672,0-0.5-0.2236326-0.5-0.4999998s0.2236328-0.5,0.5-0.5h9.6035156      c0.2763672,0,0.5,0.2236328,0.5,0.5S45.0507813,4.0000062,44.7744141,4.0000062z"/></g><g><path d="M39.9726563,27.9126034c-0.2763672,0-0.5-0.2236328-0.5-0.5V3.5000064c0-0.2763672,0.2236328-0.5,0.5-0.5      s0.5,0.2236328,0.5,0.5v23.9125977C40.4726563,27.6889706,40.2490234,27.9126034,39.9726563,27.9126034z"/></g><g><path d="M39.9765625,52.0000076c-4.2636719,0-7.7324219-3.4648438-7.7324219-7.7236328V27.4126034      c0-0.2763672,0.2236328-0.5,0.5-0.5h14.4570313c0.2763672,0,0.5,0.2236328,0.5,0.5v16.8637714      C47.7011719,48.5351639,44.2363281,52.0000076,39.9765625,52.0000076z M33.2441406,27.9126034v16.3637714      c0,3.7075195,3.0205078,6.7236328,6.7324219,6.7236328c3.7080078,0,6.7246094-3.0161133,6.7246094-6.7236328V27.9126034      H33.2441406z"/></g></g></g><g><g><path d="M23.0742188,52.0000076H9.0488281c-0.9648438,0-1.75-0.7851563-1.75-1.75V30.9516659c0-0.2763672,0.2236328-0.5,0.5-0.5     h16.5253906c0.2763672,0,0.5,0.2236328,0.5,0.5v19.2983418C24.8242188,51.2148514,24.0390625,52.0000076,23.0742188,52.0000076z      M8.2988281,31.4516659v18.7983418c0,0.4135742,0.3369141,0.75,0.75,0.75h14.0253906c0.4130859,0,0.75-0.3364258,0.75-0.75     V31.4516659H8.2988281z"/></g><g><path d="M21.7675781,31.4516659H10.3544922c-0.2763672,0-0.5-0.2236328-0.5-0.5V16.5556698c0-0.2763672,0.2236328-0.5,0.5-0.5     h11.4130859c0.2763672,0,0.5,0.2236328,0.5,0.5v14.3959961C22.2675781,31.2280331,22.0439453,31.4516659,21.7675781,31.4516659z      M10.8544922,30.4516659h10.4130859V17.0556698H10.8544922V30.4516659z"/></g><g><path d="M20.0517578,17.0556698h-7.9804688c-0.2763672,0-0.5-0.2236328-0.5-0.5v-6.5278311     c0-0.1499023,0.0673828-0.2919922,0.1835938-0.387207l7.9804688-6.527832     c0.1494141-0.1220703,0.3554688-0.1474609,0.5302734-0.0644531c0.1748047,0.0825195,0.2861328,0.2583008,0.2861328,0.4516602     v13.0556631C20.5517578,16.832037,20.328125,17.0556698,20.0517578,17.0556698z M12.5712891,16.0556698h6.9804688V4.555182     l-6.9804688,5.7094731V16.0556698z"/></g></g></g><text x="0" y="70" fill="#000000" font-size="5px" font-weight="bold" font-family="'Helvetica Neue', Helvetica, Arial-Unicode, Arial, Sans-serif">Created by Dinosoft Labs</text><text x="0" y="75" fill="#000000" font-size="5px" font-weight="bold" font-family="'Helvetica Neue', Helvetica, Arial-Unicode, Arial, Sans-serif">from the Noun Project</text></svg>