<svg xmlns="http://www.w3.org/2000/svg" xmlns:xlink="http://www.w3.org/1999/xlink" version="1.0" x="0px" y="0px" viewBox="0 0 100 125" enable-background="new 0 0 100 100" xml:space="preserve"><path fill="none" stroke="#000000" stroke-linecap="round" stroke-linejoin="round" stroke-miterlimit="10" d="M10,74  c3.335,1.38,6.911,1.278,10.001,0l0.004-0.002c3.09-1.279,6.667-1.38,10.002,0L30,74c3.335,1.38,6.911,1.278,10.001,0l0.003-0.002  c3.09-1.279,6.666-1.38,10.001,0L49.999,74c3.332,1.38,6.911,1.278,10.002,0v-0.002c3.09-1.279,6.669-1.38,10.001,0L69.998,74  c3.332,1.38,6.911,1.278,10.001,0v-0.002c3.091-1.279,6.67-1.38,10.001,0c-3.331-1.38-6.91-1.279-10.001,0V74  c-3.09,1.278-6.669,1.38-10.001,0l0.004-0.002c-3.332-1.38-6.911-1.279-10.001,0V74c-3.091,1.278-6.67,1.38-10.002,0l0.007-0.002  c-3.335-1.38-6.911-1.279-10.001,0L40.001,74c-3.09,1.278-6.666,1.38-10.001,0l0.007-0.002c-3.335-1.38-6.913-1.279-10.002,0  L20.001,74C16.911,75.278,13.335,75.38,10,74z"/><path fill="none" stroke="#000000" stroke-linecap="round" stroke-linejoin="round" stroke-miterlimit="10" d="M20.005,78.999  c3.09-1.278,6.667-1.382,10.002,0H30c3.335,1.381,6.911,1.277,10.001,0c-3.09,1.277-6.666,1.381-10.001,0h0.007  C26.672,77.617,23.095,77.721,20.005,78.999z"/><path fill="none" stroke="#000000" stroke-linecap="round" stroke-linejoin="round" stroke-miterlimit="10" d="M60.001,78.999  c3.09-1.278,6.669-1.382,10.001,0h-0.004c3.332,1.381,6.911,1.277,10.001,0c-3.09,1.277-6.669,1.381-10.001,0h0.004  C66.67,77.617,63.091,77.721,60.001,78.999z"/><path fill="none" stroke="#000000" stroke-linecap="round" stroke-linejoin="round" stroke-miterlimit="10" d="M90,83.997  c-3.331-1.378-6.91-1.277-10.001,0C83.09,82.72,86.669,82.619,90,83.997z"/><path fill="none" stroke="#000000" stroke-linecap="round" stroke-linejoin="round" stroke-miterlimit="10" d="M30,84.003  c3.335,1.376,6.911,1.277,10.001,0l0.003-0.006c3.09-1.277,6.666-1.378,10.001,0l-0.007,0.006c3.332,1.376,6.911,1.277,10.002,0  v-0.006c3.09-1.277,6.669-1.378,10.001,0c-3.332-1.378-6.911-1.277-10.001,0v0.006c-3.091,1.277-6.67,1.376-10.002,0l0.007-0.006  c-3.335-1.378-6.911-1.277-10.001,0l-0.003,0.006C36.911,85.28,33.335,85.379,30,84.003z"/><path fill="none" stroke="#000000" stroke-linecap="round" stroke-linejoin="round" stroke-miterlimit="10" d="M10,89  c3.335,1.381,6.911,1.279,10.001,0h0.004c3.09-1.276,6.667-1.382,10.002,0H30c3.335,1.381,6.911,1.279,10.001,0h0.003  c3.09-1.276,6.666-1.382,10.001,0c-3.335-1.382-6.911-1.276-10.001,0h-0.003c-3.09,1.279-6.666,1.381-10.001,0h0.007  c-3.335-1.382-6.913-1.276-10.002,0h-0.004C16.911,90.279,13.335,90.381,10,89z"/><path fill="none" stroke="#000000" stroke-linecap="round" stroke-linejoin="round" stroke-miterlimit="10" d="M60.001,89  c3.09-1.276,6.669-1.382,10.001,0h-0.004c3.332,1.381,6.911,1.279,10.001,0c-3.09,1.279-6.669,1.381-10.001,0h0.004  C66.67,87.618,63.091,87.724,60.001,89z"/><path fill="none" stroke="#000000" stroke-linecap="round" stroke-linejoin="round" stroke-miterlimit="10" d="M20.001,74V62.5  h60.002l-9.381,11.721c-0.207-0.072-0.417-0.133-0.624-0.221l0.004-0.002c-3.332-1.38-6.911-1.279-10.001,0V74  c-3.091,1.278-6.67,1.38-10.002,0l0.007-0.002c-3.335-1.38-6.911-1.279-10.001,0L40.001,74c-3.09,1.278-6.666,1.38-10.001,0  l0.007-0.002c-3.335-1.38-6.913-1.279-10.002,0L20.001,74L20.001,74z"/><path fill="none" stroke="#000000" stroke-linecap="round" stroke-linejoin="round" stroke-miterlimit="10" d="M66.653,50.188  c-5.288-5.315-9.439-11.584-12.258-18.414l-0.1-0.05c-2.814-6.83-4.3-14.216-4.293-21.723V62.5h35  C77.919,59.552,71.759,55.314,66.653,50.188z"/><path fill="none" stroke="#000000" stroke-linecap="round" stroke-linejoin="round" stroke-miterlimit="10" d="M50.002,22.501  c0,19.332-15.671,35.002-35,35.002h35V22.501z"/><path fill="none" stroke="#000000" stroke-linecap="round" stroke-linejoin="round" stroke-miterlimit="10" d="M55.002,62.5V33.146  c-0.203-0.455-0.417-0.91-0.606-1.371l-0.1-0.05c-2.814-6.83-4.3-14.216-4.293-21.723V62.5H55.002z"/><path fill="none" stroke="#000000" stroke-linecap="round" stroke-linejoin="round" stroke-miterlimit="10" d="M60.001,62.5h5.002  V48.449c-1.822-1.995-3.49-4.11-5.002-6.32V62.5z"/><path fill="none" stroke="#000000" stroke-linecap="round" stroke-linejoin="round" stroke-miterlimit="10" d="M70.002,53.274  c1.588,1.354,3.248,2.641,5.002,3.829V62.5h-5.002V53.274z"/><text x="0" y="115" fill="#000000" font-size="5px" font-weight="bold" font-family="'Helvetica Neue', Helvetica, Arial-Unicode, Arial, Sans-serif">Created by Danil Polshin</text><text x="0" y="120" fill="#000000" font-size="5px" font-weight="bold" font-family="'Helvetica Neue', Helvetica, Arial-Unicode, Arial, Sans-serif">from the Noun Project</text></svg>