<svg xmlns="http://www.w3.org/2000/svg" xmlns:xlink="http://www.w3.org/1999/xlink" xml:space="preserve" version="1.1" style="shape-rendering:geometricPrecision;text-rendering:geometricPrecision;image-rendering:optimizeQuality;" viewBox="0 0 8281 7265" x="0px" y="0px" fill-rule="evenodd" clip-rule="evenodd"><defs><style type="text/css">
   
    .fil0 {fill:black;fill-rule:nonzero}
   
  </style></defs><g><path class="fil0" d="M7561 373l-372 -25 0 4365c-985,20 -1887,227 -2689,812 942,-521 2001,-626 3061,-550l0 -4602zm-3420 717c956,-799 1751,-1083 3048,-1090l0 293 427 29 0 309 346 56 0 266 319 75 0 4715c-1328,-310 -2818,-479 -4111,60l-28 9 -29 -10c-1293,-539 -2785,-369 -4113,-59l0 -4715 319 -75 0 -266 346 -56 0 -309 427 -29 0 -293c1274,6 2064,276 3049,1090zm27 49l0 4582c834,-739 1833,-1035 2965,-1063l0 -4602c-1256,10 -2039,308 -2965,1083zm-3076 3574l0 -4365 -371 25 0 4602c1057,-76 2118,29 3061,550 -784,-574 -1707,-792 -2690,-812zm2626 840c-945,-511 -1995,-597 -3053,-518l0 -4348 -290 46 0 4602c1160,-186 2229,-193 3343,218zm-3662 -4481l0 4601c1141,-264 2417,-413 3565,-98 -1047,-399 -2214,-352 -3302,-175l0 -4390c-88,20 -176,40 -263,62zm4057 4649l0 -4582c-946,-792 -1758,-1073 -2965,-1083l0 4602c1110,27 2119,313 2965,1063zm4113 -4649l-264 -62 0 4390c-1156,-189 -2185,-215 -3302,175 1148,-315 2424,-166 3566,98l0 -4601zm-320 -339l-290 -46 0 4348c-1066,-80 -2120,11 -3053,518 1059,-424 2234,-396 3343,-218l0 -4602z"/></g><text x="0" y="5827" fill="#000000" font-size="5px" font-weight="bold" font-family="'Helvetica Neue', Helvetica, Arial-Unicode, Arial, Sans-serif">Created by joni</text><text x="0" y="5832" fill="#000000" font-size="5px" font-weight="bold" font-family="'Helvetica Neue', Helvetica, Arial-Unicode, Arial, Sans-serif">from the Noun Project</text></svg>