<svg xmlns="http://www.w3.org/2000/svg" data-name="Camada 1" viewBox="0 0 90 86.725" x="0px" y="0px"><title>icones</title><path d="M86.8,9.3h-30a1.09,1.09,0,0,0,0-.18V2.47A2.48,2.48,0,0,0,54.32,0H35.69a2.48,2.48,0,0,0-2.48,2.47V9.12a1.09,1.09,0,0,0,0,.18h-30A3.21,3.21,0,0,0,0,12.51V66.17a3.21,3.21,0,0,0,3.21,3.21H86.8A3.21,3.21,0,0,0,90,66.17V12.51A3.21,3.21,0,0,0,86.8,9.3ZM35.5,2.47a.18.18,0,0,1,.19-.18H54.32a.18.18,0,0,1,.18.18V9.12a.18.18,0,0,1-.18.18H35.69a.18.18,0,0,1-.19-.18Zm-33.21,10a.92.92,0,0,1,.92-.92H86.8a.92.92,0,0,1,.92.92V30.3a.92.92,0,0,1-.92.92H3.21a.92.92,0,0,1-.92-.92ZM50.85,33.69V37a.19.19,0,0,1-.18.19H39.34a.2.2,0,0,1-.19-.19V33.69a.19.19,0,0,1,.19-.18H50.67A.18.18,0,0,1,50.85,33.69ZM87.72,66.17a.93.93,0,0,1-.92.92H3.21a.92.92,0,0,1-.92-.92V33.38a3.46,3.46,0,0,0,.92.13H36.88a1.09,1.09,0,0,0,0,.18V37a2.48,2.48,0,0,0,2.47,2.48H50.67A2.48,2.48,0,0,0,53.14,37V33.69a1.09,1.09,0,0,0,0-.18H86.8a3.46,3.46,0,0,0,.92-.13Z"/><text x="0" y="84.38" fill="#000000" font-size="5px" font-weight="bold" font-family="'Helvetica Neue', Helvetica, Arial-Unicode, Arial, Sans-serif">Created by 1996studio</text><text x="0" y="89.38" fill="#000000" font-size="5px" font-weight="bold" font-family="'Helvetica Neue', Helvetica, Arial-Unicode, Arial, Sans-serif">from the Noun Project</text></svg>