<svg xmlns="http://www.w3.org/2000/svg" xmlns:xlink="http://www.w3.org/1999/xlink" version="1.1" x="0px" y="0px" viewBox="0 0 100 125" enable-background="new 0 0 100 100" xml:space="preserve"><path d="M94.825,45.408L82.904,24.993c-0.319-0.548-0.99-0.78-1.581-0.545c-0.032,0.013-3.325,1.305-6.792,1.305  c-1.343,0-3.009-0.804-4.937-1.736c-2.644-1.276-5.933-2.865-9.756-2.865c-3.522,0-6.507,1.01-8.986,2.473  c-2.637-1.865-5.561-2.954-8.711-3.22c-3.812-0.323-7.222,0.983-9.963,2.032c-2,0.766-3.724,1.425-5.067,1.313  c-3.435-0.291-6.626-1.857-6.659-1.873c-0.566-0.281-1.255-0.107-1.619,0.411l-13.6,19.336c-0.385,0.547-0.284,1.298,0.23,1.725  L19.97,55.373l-0.088,0.088c-1.055,1.056-1.637,2.459-1.637,3.952s0.582,2.896,1.637,3.951s2.458,1.638,3.952,1.638  c0.36,0,0.715-0.036,1.061-0.103c0,0.017-0.002,0.032-0.002,0.048c0,1.493,0.582,2.896,1.637,3.952  c1.055,1.056,2.459,1.637,3.952,1.637c0.507,0,1.002-0.071,1.478-0.202c0.062,1.344,0.598,2.67,1.622,3.693  c1.055,1.056,2.459,1.638,3.952,1.638c0.39,0,0.773-0.042,1.146-0.119c2.488,3.122,5.698,4.1,8.538,4.1  c1.85,0,3.542-0.413,4.771-0.913c0.94,0.311,1.964,0.481,3.002,0.481c2.253,0,4.364-0.775,5.769-2.061  c0.676,0.285,1.407,0.435,2.162,0.435c0.001,0,0.001,0,0.002,0c1.492,0,2.896-0.581,3.95-1.637c0.825-0.824,1.355-1.862,1.55-2.988  c0.872,0.514,1.852,0.776,2.834,0.776c1.431,0,2.861-0.545,3.951-1.635c0.955-0.954,1.518-2.195,1.616-3.528  c0.549,0.177,1.127,0.272,1.721,0.272c0,0,0,0,0.001,0c1.492,0,2.896-0.582,3.951-1.638c1.056-1.055,1.637-2.458,1.637-3.951  s-0.581-2.896-1.637-3.952l-2.293-2.293l14.245-9.908C94.999,46.725,95.162,45.985,94.825,45.408z M25.972,61.552  c-0.571,0.57-1.331,0.886-2.139,0.886s-1.567-0.315-2.138-0.886c-0.571-0.572-0.886-1.331-0.886-2.139s0.315-1.567,0.886-2.139  l2.564-2.564c0.571-0.571,1.331-0.887,2.139-0.887c0.808,0,1.567,0.315,2.139,0.887c0.571,0.57,0.885,1.33,0.885,2.139  c0,0.808-0.314,1.566-0.886,2.139L25.972,61.552z M33.57,66.137l-0.95,0.949c-0.571,0.571-1.331,0.886-2.139,0.886  c-0.808,0-1.567-0.314-2.139-0.886s-0.886-1.331-0.886-2.139s0.314-1.567,0.886-2.139l5.771-5.77  c0.571-0.571,1.331-0.887,2.138-0.887c0.808,0,1.568,0.315,2.139,0.887c0.571,0.57,0.886,1.33,0.886,2.139  c0,0.805-0.314,1.562-0.882,2.133l-4.813,4.813C33.578,66.128,33.574,66.132,33.57,66.137z M37.533,73.101  c-0.808,0-1.567-0.315-2.138-0.886c-1.178-1.178-1.179-3.094-0.004-4.273l4.812-4.813c0.003-0.003,0.006-0.007,0.009-0.01  l0.953-0.953c0.571-0.57,1.331-0.885,2.139-0.885c0.808,0,1.568,0.314,2.139,0.886s0.886,1.33,0.886,2.138  c0,0.808-0.315,1.567-0.886,2.139l-5.771,5.771C39.101,72.785,38.341,73.101,37.533,73.101z M47.693,75.077  c0.194,0.657,0.598,1.26,1.25,1.847c-2.157,0.382-5.341,0.276-7.871-2.522c0.143-0.117,0.28-0.242,0.412-0.374l5.77-5.771  c0.085-0.085,0.162-0.176,0.241-0.266c2.115,1.644,1.654,2.46,0.943,3.711C47.928,72.602,47.292,73.721,47.693,75.077z   M80.684,61.121c0.571,0.57,0.886,1.331,0.886,2.139s-0.314,1.567-0.886,2.139c-0.571,0.57-1.33,0.886-2.138,0.886  c-0.001,0-0.001,0-0.001,0c-0.808,0-1.567-0.315-2.139-0.886L63.03,52.021c-0.501-0.501-1.313-0.501-1.813,0s-0.501,1.313,0,1.813  l12.172,12.173c0.002,0.001,0.004,0.004,0.006,0.007c0.572,0.571,0.886,1.331,0.886,2.139s-0.313,1.566-0.886,2.139  c-0.571,0.57-1.33,0.886-2.138,0.886c-0.809,0-1.568-0.315-2.139-0.886l-2.24-2.24c-0.002-0.001-0.003-0.003-0.005-0.005  c0-0.001-0.002-0.002-0.002-0.003l-7.97-7.969c-0.5-0.501-1.312-0.501-1.813,0s-0.501,1.313,0,1.813l7.974,7.974  c0.57,0.571,0.884,1.33,0.884,2.137c0,0.808-0.314,1.567-0.886,2.139s-1.331,0.886-2.139,0.886s-1.567-0.314-2.139-0.887  l-5.132-5.13c-0.5-0.501-1.312-0.501-1.813,0c-0.501,0.5-0.501,1.312,0,1.813l4.782,4.781c-0.931,0.654-2.248,1.049-3.631,1.049  c-0.896,0-1.771-0.162-2.537-0.466c-1.875-0.983-2.234-1.609-2.301-1.833c-0.086-0.29,0.138-0.716,0.516-1.382  c1.127-1.984,1.966-4.33-1.958-7.266c0.116-0.451,0.183-0.919,0.183-1.397c0-1.493-0.582-2.896-1.637-3.952  c-1.056-1.056-2.459-1.637-3.953-1.637c-0.506,0-1,0.071-1.476,0.201c-0.063-1.396-0.63-2.698-1.625-3.692  c-1.055-1.056-2.459-1.638-3.952-1.638c-1.493,0-2.896,0.582-3.952,1.638l-0.44,0.44c-0.223-1.042-0.738-1.999-1.509-2.77  c-1.055-1.056-2.459-1.638-3.952-1.638c-1.493,0-2.897,0.582-3.953,1.638l-0.669,0.669c-0.043-0.048-0.086-0.097-0.138-0.14  L8.013,42.129l12.312-17.505c1.342,0.556,3.853,1.45,6.571,1.68c1.923,0.165,4-0.631,6.2-1.473c2.627-1.005,5.605-2.144,8.83-1.872  c2.375,0.201,4.604,0.956,6.651,2.23c-2.647,2.095-4.543,4.604-5.736,6.498c-0.643,1.021-6.239,10.104-4.772,14.674  c0.345,1.074,1.055,1.856,2.052,2.263c0.737,0.301,1.489,0.453,2.235,0.453c3.521,0,6.197-3.258,8.786-6.409  c1.921-2.338,3.901-4.749,5.846-5.245l20.32,20.32c0.001,0.001,0.002,0.002,0.003,0.003L80.684,61.121z M78.362,55.173L71.06,47.87  c0,0-0.001-0.001-0.001-0.001L58.341,35.151c-0.241-0.242-0.567-0.376-0.906-0.376c-0.028,0-0.058,0.001-0.085,0.003  c-3.223,0.215-5.748,3.289-8.191,6.263c-2.21,2.69-4.496,5.473-6.804,5.473c-0.418,0-0.832-0.086-1.266-0.263  c-0.207-0.084-0.437-0.23-0.579-0.672c-0.743-2.315,1.764-8.18,4.5-12.523c2.197-3.488,7.045-9.338,14.829-9.338  c3.236,0,6.107,1.386,8.641,2.61c2.12,1.023,4.122,1.991,6.052,1.991c2.729,0,5.306-0.679,6.69-1.12l10.791,18.481L78.362,55.173z"/><text x="0" y="115" fill="#000000" font-size="5px" font-weight="bold" font-family="'Helvetica Neue', Helvetica, Arial-Unicode, Arial, Sans-serif">Created by David</text><text x="0" y="120" fill="#000000" font-size="5px" font-weight="bold" font-family="'Helvetica Neue', Helvetica, Arial-Unicode, Arial, Sans-serif">from the Noun Project</text></svg>