<svg xmlns:dc="http://purl.org/dc/elements/1.1/" xmlns:cc="http://creativecommons.org/ns#" xmlns:rdf="http://www.w3.org/1999/02/22-rdf-syntax-ns#" xmlns:svg="http://www.w3.org/2000/svg" xmlns="http://www.w3.org/2000/svg" xmlns:sodipodi="http://sodipodi.sourceforge.net/DTD/sodipodi-0.dtd" xmlns:inkscape="http://www.inkscape.org/namespaces/inkscape" version="1.1" x="0px" y="0px" viewBox="0 0 100 125"><g transform="translate(0,-952.36218)"><path style="text-indent:0;text-transform:none;direction:ltr;block-progression:tb;baseline-shift:baseline;color:#000000;enable-background:accumulate;" d="m 50,967.36218 a 1.581297,0.63564021 0 0 0 -1.125,0.21983 l -25,10.01794 a 1.581297,0.63564021 0 0 0 0,0.91073 l 10.125,4.08255 0,8.54194 c 0,8.89033 7.153296,16.07893 16,16.07893 8.846704,0 16,-7.1886 16,-16.07893 l 0,-8.57335 6,-2.41812 0,5.11888 c -1.720486,0.44992 -3,2.00038 -3,3.86272 0,2.20815 1.802706,4.01974 4,4.01974 2.197293,0 4,-1.81159 4,-4.01974 0,-1.85174 -1.29427,-3.40257 -3,-3.86272 l 0,-5.90399 2.09375,-0.84791 a 1.581297,0.63564021 0 0 0 0.03125,-0.87932 l -25,-10.04935 A 1.581297,0.63564021 0 0 0 51,967.5192 1.581297,0.63564021 0 0 0 50,967.36218 z m 0,1.53881 22.78125,9.17003 -0.1875,0.0942 A 1.0001,1.0050354 0 0 0 72.5,978.19663 L 50,987.20965 27.21875,978.07102 50,968.90099 z m 14,14.47734 0,7.75684 c 0,7.81168 -6.226704,14.06913 -14,14.06913 -7.773296,0 -14,-6.25745 -14,-14.06913 l 0,-7.72544 12.875,5.1817 a 1.581297,0.63564021 0 0 0 2.25,-0.0314 L 64,983.37833 z m 9,3.7371 c 1.116417,0 2,0.88795 2,2.00987 0,1.12193 -0.883583,2.00987 -2,2.00987 -1.116418,0 -2,-0.88794 -2,-2.00987 0,-1.12192 0.883582,-2.00987 2,-2.00987 z m -23,26.12827 c -15.35205,0 -28,10.2368 -28,23.1135 a 1.0001,1.0050354 0 0 0 1,1.005 l 54,0 a 1.0001,1.0050354 0 0 0 1,-1.005 c 0,-12.8767 -12.64795,-23.1135 -28,-23.1135 z m 0,2.0099 c 14.042596,0 25.219448,9.0176 25.875,20.0987 l -51.75,0 c 0.655552,-11.0811 11.832403,-20.0987 25.875,-20.0987 z" fill="#000000" fill-opacity="1" stroke="none" marker="none" visibility="visible" display="inline" overflow="visible"/></g><text x="0" y="115" fill="#000000" font-size="5px" font-weight="bold" font-family="'Helvetica Neue', Helvetica, Arial-Unicode, Arial, Sans-serif">Created by joeartcon</text><text x="0" y="120" fill="#000000" font-size="5px" font-weight="bold" font-family="'Helvetica Neue', Helvetica, Arial-Unicode, Arial, Sans-serif">from the Noun Project</text></svg>