<svg xmlns="http://www.w3.org/2000/svg" xmlns:xlink="http://www.w3.org/1999/xlink" version="1.1" x="0px" y="0px" viewBox="0 0 98 122.5" style="enable-background:new 0 0 98 98;" xml:space="preserve"><title>11</title><g><path d="M67,11.2H31c-3.3,0-6,2.7-6,6v49c0,3.3,2.7,6,6,6h11.2l-0.3,13.2c0,0.5,0.3,1,0.8,1.2l0.5,0.2c0.3,0,0.7-0.2,0.9-0.4   l4.9-4.2l4.9,4.2c0.4,0.4,0.9,0.4,1.4,0.2c0.5-0.2,0.8-0.7,0.8-1.2l-0.3-13.2H67c3.3,0,6-2.7,6-6v-49C73,13.9,70.3,11.2,67,11.2z    M49.9,80.3c-0.5-0.4-1.3-0.4-1.8,0l-4.2,3.6L44.4,67c1.5,0.8,3.1,1.2,4.8,1.2c1.6,0,3.1-0.4,4.5-1.1l0.4,16.8L49.9,80.3z    M49.2,66.2c-4.5,0-8.2-3.7-8.2-8.2s3.7-8.2,8.2-8.2s8.2,3.7,8.2,8.2S53.7,66.2,49.2,66.2z M71,66.2c0.1,2.2-1.6,3.9-3.8,4   c-0.1,0-0.1,0-0.2,0H55.7L55.6,66c4.4-3.6,5-10,1.4-14.4c-1.9-2.4-4.8-3.7-7.8-3.7c-5.6,0-10.1,4.5-10.2,10.1   c0,2.9,1.3,5.7,3.5,7.6c-0.1,0.1-0.1,0.3-0.1,0.4v4.2H31c-2.2,0.1-3.9-1.6-4-3.8c0-0.1,0-0.1,0-0.2v-49c0-2.2,1.8-4,4-4h36   c2.2,0,4,1.8,4,4V66.2z"/><path d="M42.5,26.8h13c0.6,0,1-0.4,1-1c0.1-0.5-0.3-0.9-0.8-1c-0.1,0-0.1,0-0.2,0h-13c-0.5-0.1-0.9,0.3-1,0.8c0,0.1,0,0.1,0,0.2   C41.5,26.4,41.9,26.8,42.5,26.8z"/><path d="M61.7,35.8c-0.1,0-0.1,0-0.2,0h-25c-0.5-0.1-0.9,0.3-1,0.8c0,0.1,0,0.1,0,0.2c0,0.6,0.4,1,1,1h25c0.6,0,1-0.4,1-1   C62.6,36.3,62.2,35.9,61.7,35.8z"/></g><text x="0" y="113" fill="#000000" font-size="5px" font-weight="bold" font-family="'Helvetica Neue', Helvetica, Arial-Unicode, Arial, Sans-serif">Created by Harper</text><text x="0" y="118" fill="#000000" font-size="5px" font-weight="bold" font-family="'Helvetica Neue', Helvetica, Arial-Unicode, Arial, Sans-serif">from the Noun Project</text></svg>