<svg xmlns="http://www.w3.org/2000/svg" xmlns:xlink="http://www.w3.org/1999/xlink" version="1.1" x="0px" y="0px" viewBox="0 0 100 125" enable-background="new 0 0 100 100" xml:space="preserve"><g><rect x="32.315" y="22.749" width="37.942" height="3"/><rect x="32.315" y="13.749" width="37.942" height="3"/><path d="M72.054,39.365c-5.47,0-9.92,4.449-9.92,9.92c0,5.469,4.45,9.919,9.92,9.919c5.469,0,9.919-4.45,9.919-9.919   C81.973,43.814,77.522,39.365,72.054,39.365z M72.054,56.204c-3.816,0-6.92-3.104-6.92-6.919c0-3.816,3.104-6.92,6.92-6.92   c3.814,0,6.919,3.104,6.919,6.92C78.973,53.1,75.868,56.204,72.054,56.204z"/><path d="M79.315,86.676c1.754-3.016,3.641-6.547,5.455-10.221c2.831-5.732,9.414-19.854,9.414-27.17   c0-9.66-6.223-17.889-14.869-20.902V4.75h-57v38.455c-0.977-0.41-2.03-0.656-3.143-0.656c-4.75,0-8.614,4.078-8.614,9.089   c0,1.188,0.219,2.357,0.641,3.444c-3.353,2.315-5.384,6.066-5.384,10.091c0,6.392,5.045,11.668,11.5,12.334v9.243H7.314v3h59.741   c3.254,5.061,4.305,5.5,5.234,5.5c0.935,0,1.982-0.439,5.168-5.5h13.33v-3H79.315V86.676z M25.315,7.75h51v19.819   c-1.381-0.271-2.805-0.416-4.262-0.416c-5.07,0-9.744,1.718-13.479,4.596H32.295v3h23.091c-1.551,1.774-2.825,3.796-3.75,6H32.295   v3h18.327c-0.457,1.771-0.701,3.625-0.701,5.536c0,0.146,0.019,0.313,0.024,0.464H32.295v3h18.011c0.35,1.847,0.922,3.888,1.629,6   h-19.62v3h20.684c0.769,2.039,1.613,4.073,2.459,6.001H32.314v19h-7V7.75z M35.314,86.75v-16h14.004v16H35.314z M52.318,86.75v-16   h4.491c1.055,2.277,2.035,4.268,2.77,5.718c1.869,3.694,3.816,7.248,5.624,10.282H52.318z M8.815,65.173   c0-3.388,1.928-6.528,5.03-8.198l1.37-0.736l-0.786-1.342c-0.57-0.975-0.872-2.101-0.872-3.259c0-3.357,2.518-6.089,5.614-6.089   c1.165,0,2.245,0.393,3.143,1.055v27.298c-1.123,0.427-2.337,0.68-3.618,0.68C13.249,74.581,8.815,70.36,8.815,65.173z    M20.316,77.472c0.685-0.084,1.352-0.221,1.999-0.404v9.683h-1.999V77.472z M72.284,91.934   c-4.023-4.201-19.363-32.446-19.363-42.648c0-10.549,8.583-19.132,19.133-19.132c10.549,0,19.131,8.583,19.131,19.132   C91.185,59.51,76.218,87.727,72.284,91.934z"/></g><text x="0" y="115" fill="#000000" font-size="5px" font-weight="bold" font-family="'Helvetica Neue', Helvetica, Arial-Unicode, Arial, Sans-serif">Created by Nikita Kozin</text><text x="0" y="120" fill="#000000" font-size="5px" font-weight="bold" font-family="'Helvetica Neue', Helvetica, Arial-Unicode, Arial, Sans-serif">from the Noun Project</text></svg>