<svg xmlns="http://www.w3.org/2000/svg" xmlns:xlink="http://www.w3.org/1999/xlink" version="1.1" x="0px" y="0px" viewBox="0 0 100 125" style="enable-background:new 0 0 100 100;" xml:space="preserve"><g style="" display="none"><rect x="-723.065" y="-737.496" style="" width="1220.125" height="990.055" display="inline" fill="#CCCCFF" stroke="#000000" stroke-width="4" stroke-miterlimit="10"/></g><g><path d="M21.445,7.74c-4.802,0-8.695,3.893-8.695,8.695c0,4.802,3.893,8.695,8.695,8.695c4.802,0,8.695-3.893,8.695-8.695   C30.14,11.633,26.247,7.74,21.445,7.74z M15.034,16.435c0-3.535,2.876-6.411,6.411-6.411c3.535,0,6.411,2.876,6.411,6.411   c0,3.535-2.876,6.411-6.411,6.411C17.91,22.846,15.034,19.97,15.034,16.435z"/><path d="M32.947,34.951c-0.56-2.238-2.562-3.801-4.87-3.801H18.012c-4.192,0-7.831,2.84-8.87,7.017L5.013,66.089   c-0.093,0.625,0.339,1.205,0.963,1.297c0.057,0.008,0.113,0.012,0.168,0.012c0.558,0,1.045-0.408,1.129-0.975l0.092-0.623   l4.015-27.189c0.763-3.049,3.49-5.178,6.633-5.178h10.065c1.257,0,2.349,0.852,2.655,2.073l4.907,19.605   c0.011,0.043,0.04,0.075,0.055,0.116c0.202,0.536,0.764,0.858,1.33,0.714c0.611-0.153,0.984-0.773,0.83-1.385L32.947,34.951z"/><path d="M16.631,63.475c-0.631,0-1.142,0.511-1.142,1.142v25.824c0,0.631,0.511,1.142,1.142,1.142c0.631,0,1.142-0.511,1.142-1.142   V64.617C17.773,63.986,17.262,63.475,16.631,63.475z"/><path d="M26.257,63.475c-0.631,0-1.142,0.511-1.142,1.142v25.824c0,0.631,0.511,1.142,1.142,1.142s1.142-0.511,1.142-1.142V64.617   C27.4,63.986,26.889,63.475,26.257,63.475z"/><path d="M69.861,21.004c0,4.802,3.893,8.695,8.695,8.695s8.695-3.893,8.695-8.695c0-4.802-3.893-8.695-8.695-8.695   S69.861,16.202,69.861,21.004z M78.556,14.593c3.535,0,6.411,2.876,6.411,6.411c0,3.535-2.876,6.411-6.411,6.411   c-3.535,0-6.411-2.876-6.411-6.411C72.145,17.469,75.021,14.593,78.556,14.593z"/><path d="M81.988,33.434h-6.865c-4.192,0-7.831,2.84-8.837,6.866l-4.129,14.215c-0.176,0.606,0.172,1.24,0.777,1.416   c0.582,0.17,1.168-0.15,1.376-0.702c0.01-0.027,0.031-0.047,0.04-0.076l4.141-14.257c0.763-3.049,3.49-5.178,6.633-5.178h6.865   c3.142,0,5.87,2.129,6.612,5.082l4.026,24.997l0.103,0.641c0.09,0.561,0.576,0.96,1.127,0.96c0.06,0,0.122-0.004,0.183-0.015   c0.622-0.1,1.046-0.686,0.946-1.31l-4.149-25.734C89.818,36.274,86.18,33.434,81.988,33.434z"/><path d="M83.369,63.475c-0.631,0-1.142,0.511-1.142,1.142v25.824c0,0.631,0.511,1.142,1.142,1.142s1.142-0.511,1.142-1.142V64.617   C84.511,63.986,84,63.475,83.369,63.475z"/><path d="M73.743,63.475c-0.631,0-1.142,0.511-1.142,1.142v25.824c0,0.631,0.511,1.142,1.142,1.142s1.142-0.511,1.142-1.142V64.617   C74.885,63.986,74.374,63.475,73.743,63.475z"/><path d="M49.709,62.067c3.899,0,7.07-3.171,7.07-7.07s-3.171-7.07-7.07-7.07s-7.07,3.171-7.07,7.07S45.81,62.067,49.709,62.067z    M49.709,50.212c2.639,0,4.785,2.146,4.785,4.785s-2.146,4.785-4.785,4.785s-4.785-2.146-4.785-4.785S47.07,50.212,49.709,50.212z"/><path d="M60.614,62.938c-0.574-0.263-1.252-0.007-1.513,0.567l-2.815,6.186c-0.357,0.784-2.039,1.596-4.237,1.596H47.37   c-2.197,0-3.88-0.812-4.237-1.596l-2.815-6.186c-0.261-0.573-0.936-0.83-1.513-0.567c-0.574,0.261-0.828,0.938-0.567,1.513   l2.815,6.186c0.799,1.756,3.336,2.935,6.316,2.935h4.679c2.979,0,5.517-1.179,6.316-2.935l2.815-6.186   C61.441,63.876,61.188,63.199,60.614,62.938z"/><path d="M46.428,77.823c-0.631,0-1.142,0.511-1.142,1.142v12.153c0,0.631,0.511,1.142,1.142,1.142c0.631,0,1.142-0.511,1.142-1.142   V78.965C47.571,78.334,47.06,77.823,46.428,77.823z"/><path d="M52.991,77.823c-0.631,0-1.142,0.511-1.142,1.142v12.153c0,0.631,0.511,1.142,1.142,1.142c0.631,0,1.142-0.511,1.142-1.142   V78.965C54.133,78.334,53.622,77.823,52.991,77.823z"/></g><text x="0" y="115" fill="#000000" font-size="5px" font-weight="bold" font-family="'Helvetica Neue', Helvetica, Arial-Unicode, Arial, Sans-serif">Created by Oksana Latysheva</text><text x="0" y="120" fill="#000000" font-size="5px" font-weight="bold" font-family="'Helvetica Neue', Helvetica, Arial-Unicode, Arial, Sans-serif">from the Noun Project</text></svg>