<svg xmlns="http://www.w3.org/2000/svg" xmlns:xlink="http://www.w3.org/1999/xlink" version="1.1" x="0px" y="0px" viewBox="0 0 52 65" style="enable-background:new 0 0 52 52;" xml:space="preserve"><g><g><g><path d="M27.3713894,49.9872971c-8.9697266,0-19.9619141-3.1645508-24.6015625-6.1196289     c-0.6376953-0.4042969-1.0839844-1.1220703-1.2246094-1.9677734c-0.1552734-0.9287109,0.0800781-1.8920898,0.6298828-2.5766602     L16.481741,19.1801662V8.7231359c0-0.0854492,0.0224609-0.1699219,0.0634766-0.2446289l3.4833984-6.2109375     c0.0703125-0.1240234,0.1894531-0.2128906,0.328125-0.2436523c0.140625-0.0292968,0.2851563-0.0009766,0.4003906,0.0825195     l5.2402344,3.7685549l5.2421875-3.7685549c0.1152344-0.0834961,0.2617188-0.1118163,0.4003906-0.0825195     c0.1386719,0.0307617,0.2578125,0.1196289,0.328125,0.2436523l3.4834003,6.2109375     c0.0410156,0.074707,0.0634766,0.1591797,0.0634766,0.2446289v10.4492178l14.3046875,18.9760761     c1.0078125,1.2211914,0.8847656,3.2285156-0.2763672,4.2792969l0,0     C45.5012741,46.0922775,36.3567429,49.9872971,27.3713894,49.9872971z M17.481741,8.8539953v10.4858389     c0,0.1040039-0.0322266,0.2050781-0.0927734,0.2895508L2.9719756,39.9257736     c-0.390625,0.4892578-0.5498047,1.1572266-0.4404297,1.8100586c0.09375,0.5654297,0.3759766,1.0351563,0.7744141,1.2875977     c4.5214844,2.8803711,15.2705078,5.9638672,24.0654297,5.9638672c8.7353535,0,17.5966816-3.7612305,21.5000019-7.3007813     c0,0,0,0,0.0009766-0.0004883c0.7558594-0.684082,0.8349609-2.1025391,0.1621094-2.9189453L34.6155319,19.6406155     c-0.0654297-0.0864258-0.1005859-0.1923828-0.1005859-0.3007813V8.8539953l-3.1455097-5.609375l-5.0800781,3.6518557     c-0.1738281,0.1259766-0.4101563,0.1259766-0.5839844,0l-5.078125-3.6518557L17.481741,8.8539953z"/></g><g><path d="M26.9856472,21.7524319c-5.2900391,0-9.9023438-1.8320313-10.1914063-1.9492188     c-0.2558594-0.1035156-0.3798828-0.3950195-0.2763672-0.6508789c0.1044922-0.2558594,0.3955078-0.3793945,0.6513672-0.2758789     c0.1035156,0.0410156,10.4111328,4.128418,17.5976582,0.0292969c0.2382813-0.137207,0.5439453-0.0541992,0.6826172,0.1860352     c0.1367188,0.2402344,0.0527344,0.5454102-0.1865234,0.6821289     C32.6624069,21.2582912,29.731741,21.7524319,26.9856472,21.7524319z"/></g></g><g><path d="M25.9944363,21.7177639c-0.2763672,0-0.5-0.2236328-0.5-0.5V6.4877844c0-0.2763672,0.2236328-0.5,0.5-0.5    s0.5,0.2236328,0.5,0.5v14.7299795C26.4944363,21.4941311,26.2708035,21.7177639,25.9944363,21.7177639z"/></g></g><text x="0" y="67" fill="#000000" font-size="5px" font-weight="bold" font-family="'Helvetica Neue', Helvetica, Arial-Unicode, Arial, Sans-serif">Created by Dinosoft Labs</text><text x="0" y="72" fill="#000000" font-size="5px" font-weight="bold" font-family="'Helvetica Neue', Helvetica, Arial-Unicode, Arial, Sans-serif">from the Noun Project</text></svg>