<svg xmlns="http://www.w3.org/2000/svg" xmlns:xlink="http://www.w3.org/1999/xlink" version="1.0" x="0px" y="0px" viewBox="0 0 100 125" enable-background="new 0 0 100 100" xml:space="preserve"><path fill="none" stroke="#000000" stroke-linecap="round" stroke-linejoin="round" stroke-miterlimit="10" d="M76.972,30.135  c0-1.54,1.252-2.789,2.792-2.789h0.003c3.081,0,5.58,2.5,5.58,5.581v22.331c0,3.077-2.499,5.573-5.583,5.573  c-1.54,0-2.792-1.245-2.792-2.788V30.135z"/><path fill="none" stroke="#000000" stroke-linecap="round" stroke-linejoin="round" stroke-miterlimit="10" d="M71.392,66.415  c3.084,0,5.584-2.5,5.584-5.584V27.347c0-3.08-2.5-5.583-5.584-5.583c-1.537,0-2.788,1.251-2.788,2.792v39.068  C68.604,65.163,69.854,66.415,71.392,66.415L71.392,66.415z"/><path fill="none" stroke="#000000" stroke-linecap="round" stroke-linejoin="round" stroke-miterlimit="10" d="M23.028,58.046  c0,1.537-1.251,2.785-2.792,2.785H20.23c-3.077,0-5.577-2.496-5.577-5.577v-22.33c0-3.077,2.5-5.58,5.583-5.58  c1.54,0,2.792,1.251,2.792,2.792V58.046z"/><path fill="none" stroke="#000000" stroke-linecap="round" stroke-linejoin="round" stroke-miterlimit="10" d="M28.605,21.764  c-3.083,0-5.583,2.503-5.583,5.58v33.487c0,3.084,2.5,5.584,5.583,5.584c1.54,0,2.792-1.252,2.792-2.789V24.559  C31.396,23.015,30.145,21.764,28.605,21.764L28.605,21.764z"/><rect x="10" y="40.369" fill="none" stroke="#000000" stroke-linecap="round" stroke-linejoin="round" stroke-miterlimit="10" width="4.653" height="7.444"/><rect x="85.347" y="40.369" fill="none" stroke="#000000" stroke-linecap="round" stroke-linejoin="round" stroke-miterlimit="10" width="4.653" height="7.444"/><polygon fill="none" stroke="#000000" stroke-linecap="round" stroke-linejoin="round" stroke-miterlimit="10" points="  60.118,47.813 60.377,49.46 60.121,47.813 "/><polygon fill="none" stroke="#000000" stroke-linecap="round" stroke-linejoin="round" stroke-miterlimit="10" points="  60.118,47.813 60.118,47.813 68.604,47.813 68.604,40.369 58.967,40.369 "/><path fill="none" stroke="#000000" stroke-linecap="round" stroke-linejoin="round" stroke-miterlimit="10" d="M65.293,47.813v2.51  c0,0.638-0.123,1.249-0.36,1.802c-0.236,0.581-0.587,1.1-1.021,1.534v0.013c-0.438,0.432-0.953,0.781-1.533,1.019l-6.403,2.652  c-0.577,0.243-1.1,0.59-1.534,1.024v0.01c-0.432,0.435-0.781,0.953-1.021,1.53c-0.23,0.558-0.359,1.167-0.359,1.81v16.52H36.617  V57.07c-2.643-6.371-2.448-13.213,0-19.121c1.125-1.128,2.95-1.128,4.076,0v-1.618c1.689-1.689,4.429-1.692,6.118,0v-1.018  c1.689-1.692,4.429-1.692,6.119,0v0.859c1.479-1.479,3.878-1.482,5.354,0l0.661,4.196l1.174,7.444l0,0H65.293z"/><path fill="none" stroke="#000000" stroke-linecap="round" stroke-linejoin="round" stroke-miterlimit="10" d="M58.967,40.369  l-0.681-4.4c0-2.75,2.228-4.98,4.977-4.98v-0.003c0,3.311,0.636,6.462,1.738,9.384H58.967z"/><path fill="none" stroke="#000000" stroke-linecap="round" stroke-linejoin="round" stroke-miterlimit="10" d="M35.764,40.369  h-4.368v7.444h3.33C34.697,45.274,35.048,42.765,35.764,40.369z"/><text x="0" y="115" fill="#000000" font-size="5px" font-weight="bold" font-family="'Helvetica Neue', Helvetica, Arial-Unicode, Arial, Sans-serif">Created by Danil Polshin</text><text x="0" y="120" fill="#000000" font-size="5px" font-weight="bold" font-family="'Helvetica Neue', Helvetica, Arial-Unicode, Arial, Sans-serif">from the Noun Project</text></svg>