<svg xmlns="http://www.w3.org/2000/svg" xmlns:xlink="http://www.w3.org/1999/xlink" version="1.1" x="0px" y="0px" viewBox="0 0 100 125" style="enable-background:new 0 0 100 100;" xml:space="preserve"><path d="M12.493,77.891v2.265H11c-0.553,0-1,0.447-1,1V89c0,0.553,0.447,1,1,1h78c0.553,0,1-0.447,1-1v-7.844c0-0.553-0.447-1-1-1  h-1.493v-2.265c0-20-15.735-36.391-35.475-37.45c1.842-0.791,3.137-2.621,3.137-4.75c0-2.85-2.318-5.168-5.169-5.168  s-5.169,2.318-5.169,5.168c0,2.129,1.294,3.959,3.137,4.75C28.228,41.501,12.493,57.892,12.493,77.891z M88,88H12v-5.844h76V88z   M46.831,35.691c0-1.747,1.422-3.168,3.169-3.168s3.169,1.421,3.169,3.168S51.747,38.86,50,38.86S46.831,37.438,46.831,35.691z   M50,42.385c19.578,0,35.507,15.929,35.507,35.507v2.265H14.493v-2.265C14.493,58.313,30.422,42.385,50,42.385z"/><path d="M56.872,51.092c9.254,1.685,16.832,8.64,19.307,17.719c0.121,0.445,0.524,0.737,0.964,0.737  c0.088,0,0.176-0.011,0.264-0.035c0.533-0.146,0.848-0.695,0.702-1.228c-2.676-9.819-10.871-17.34-20.879-19.16  c-0.54-0.106-1.063,0.261-1.162,0.805C55.968,50.473,56.328,50.993,56.872,51.092z"/><path d="M45.374,17.099c-2.48,0-4.499,2.041-4.499,4.549c0,2.509,2.019,4.55,4.499,4.55c0.553,0,1-0.447,1-1s-0.447-1-1-1  c-1.378,0-2.499-1.144-2.499-2.55c0-1.405,1.121-2.549,2.499-2.549c2.48,0,4.498-2.041,4.498-4.55S47.854,10,45.374,10  c-0.553,0-1,0.447-1,1s0.447,1,1,1c1.377,0,2.498,1.144,2.498,2.55S46.751,17.099,45.374,17.099z"/><path d="M54.494,17.099c-2.48,0-4.499,2.041-4.499,4.549c0,2.509,2.019,4.55,4.499,4.55c0.553,0,1-0.447,1-1s-0.447-1-1-1  c-1.378,0-2.499-1.144-2.499-2.55c0-1.405,1.121-2.549,2.499-2.549c2.48,0,4.498-2.041,4.498-4.55S56.975,10,54.494,10  c-0.553,0-1,0.447-1,1s0.447,1,1,1c1.377,0,2.498,1.144,2.498,2.55S55.871,17.099,54.494,17.099z"/><text x="0" y="115" fill="#000000" font-size="5px" font-weight="bold" font-family="'Helvetica Neue', Helvetica, Arial-Unicode, Arial, Sans-serif">Created by Made</text><text x="0" y="120" fill="#000000" font-size="5px" font-weight="bold" font-family="'Helvetica Neue', Helvetica, Arial-Unicode, Arial, Sans-serif">from the Noun Project</text></svg>