<svg xmlns:dc="http://purl.org/dc/elements/1.1/" xmlns:cc="http://creativecommons.org/ns#" xmlns:rdf="http://www.w3.org/1999/02/22-rdf-syntax-ns#" xmlns:svg="http://www.w3.org/2000/svg" xmlns="http://www.w3.org/2000/svg" xmlns:sodipodi="http://sodipodi.sourceforge.net/DTD/sodipodi-0.dtd" xmlns:inkscape="http://www.inkscape.org/namespaces/inkscape" version="1.1" x="0px" y="0px" viewBox="0 0 100 125"><g transform="translate(0,-952.36218)"><path style="text-indent:0;text-transform:none;direction:ltr;block-progression:tb;baseline-shift:baseline;color:#000000;enable-background:accumulate;" d="m 26.734375,967.07158 a 1.150115,1.150115 0 0 0 -1,1.15625 l 0,0.625 a 1.150115,1.150115 0 0 0 -0.03125,0.25 l 0,18.375 a 1.150115,1.150115 0 0 0 0.03125,0.25 l 0,29.28117 c -3.859027,0.4461 -7.332031,1.3077 -10.15625,2.4688 -2.151648,0.8846 -3.949726,1.9549 -5.25,3.2187 -1.3002739,1.2639 -2.125,2.8007 -2.125,4.4688 0,1.6681 0.8247261,3.2048 2.125,4.4687 1.300274,1.2638 3.098352,2.3029 5.25,3.1875 4.303297,1.7691 10.095963,2.8438 16.5,2.8438 6.404037,0 12.196703,-1.0747 16.5,-2.8438 2.151648,-0.8846 3.949726,-1.9237 5.25,-3.1875 1.300274,-1.2639 2.125,-2.8006 2.125,-4.4687 0,-1.6681 -0.824726,-3.2049 -2.125,-4.4688 -1.300274,-1.2638 -3.098352,-2.3341 -5.25,-3.2187 -4.303297,-1.7691 -10.095963,-2.8125 -16.5,-2.8125 -1.381969,0 -2.715045,0.062 -4.03125,0.1562 l 0,-28.21867 c 1.384054,-0.0516 4.515673,-0.15798 6.40625,0 4.815893,0.42719 10.043992,2.98646 15.6875,3.34375 2.935954,0.18586 8.03125,-0.6875 8.03125,-0.6875 a 1.150115,1.150115 0 0 0 0.96875,-1.125 l 0,-18.375 a 1.150115,1.150115 0 0 0 -1.34375,-1.15625 c 0,0 -5.273356,0.79919 -7.53125,0.65625 -4.912882,-0.31103 -9.709961,-3.26835 -15.625,-3.34375 -0.03212,-4.1e-4 -0.06156,2.4e-4 -0.09375,0 -2.183818,-0.16966 -5.11601,-0.0576 -6.53125,0 a 1.150115,1.150115 0 0 0 -1.28125,-0.84375 z m 6.03125,3.0625 c 0.608409,0.006 1.185204,0.0205 1.6875,0.0625 a 1.150115,1.150115 0 0 0 0.09375,0 c 5.146234,0.038 9.887142,3.01372 15.59375,3.375 2.26432,0.14334 5.182129,-0.27323 6.6875,-0.5 l 0,16.0625 c -1.271316,0.18043 -4.680921,0.65036 -6.5625,0.53125 -5.00266,-0.31671 -10.186579,-2.89259 -15.625,-3.375 -2.317095,-0.19357 -5.395999,0.006 -6.59375,0.0625 l 0,-16.09375 c 0.868079,-0.0368 2.906592,-0.14215 4.71875,-0.125 z m -0.6875,48.84372 c 6.148529,0 11.702223,1.0436 15.625,2.6562 1.961389,0.8064 3.500032,1.7469 4.5,2.7188 0.999968,0.9719 1.4375,1.9003 1.4375,2.8125 0,0.9122 -0.437532,1.8406 -1.4375,2.8125 -0.999968,0.9719 -2.538611,1.9123 -4.5,2.7187 -3.922777,1.6126 -9.476471,2.6563 -15.625,2.6563 -1.383294,0 -2.719971,-0.056 -4.03125,-0.1563 l 0,-16.0625 c 1.31139,-0.1002 2.647831,-0.1562 4.03125,-0.1562 z m -6.34375,0.375 0,15.625 c -3.57324,-0.4417 -6.771697,-1.2496 -9.28125,-2.2813 -1.961389,-0.8064 -3.531281,-1.7468 -4.53125,-2.7187 -0.999968,-0.9719 -1.4375,-1.9003 -1.4375,-2.8125 0,-0.9122 0.437532,-1.8406 1.4375,-2.8125 0.999969,-0.9719 2.569861,-1.9124 4.53125,-2.7188 2.509553,-1.0316 5.70801,-1.8396 9.28125,-2.2812 z m 57.28125,0.5312 c -4.832677,0 -8.78125,3.9487 -8.78125,8.7813 0,4.8327 3.948573,8.7812 8.78125,8.7812 4.832677,0 8.78125,-3.9485 8.78125,-8.7812 0,-4.8326 -3.948573,-8.7813 -8.78125,-8.7813 z m 0,2.3125 c 3.589665,0 6.46875,2.8792 6.46875,6.4688 0,3.5897 -2.879085,6.4687 -6.46875,6.4687 -3.589665,0 -6.46875,-2.879 -6.46875,-6.4687 0,-3.5896 2.879085,-6.4688 6.46875,-6.4688 z" fill="#000000" fill-opacity="1" stroke="none" marker="none" visibility="visible" display="inline" overflow="visible"/></g><text x="0" y="115" fill="#000000" font-size="5px" font-weight="bold" font-family="'Helvetica Neue', Helvetica, Arial-Unicode, Arial, Sans-serif">Created by Artdabana@Design</text><text x="0" y="120" fill="#000000" font-size="5px" font-weight="bold" font-family="'Helvetica Neue', Helvetica, Arial-Unicode, Arial, Sans-serif">from the Noun Project</text></svg>