<svg xmlns="http://www.w3.org/2000/svg" data-name="Layer 1" viewBox="0 0 100 125" x="0px" y="0px"><title>103all</title><path d="M47.29,86.91a3.89,3.89,0,0,0,5.42,0L84.86,55.86a26.24,26.24,0,0,0,0-36.37,21.6,21.6,0,0,0-15.66-6.56H69A28,28,0,0,0,50,20.8C43.84,14.95,38.1,12,32.93,12A24.67,24.67,0,0,0,15.14,19.5,26.1,26.1,0,0,0,7.86,39.29a1,1,0,0,0,2-.12,24.1,24.1,0,0,1,6.72-18.28A22.68,22.68,0,0,1,32.93,14c4.79,0,10.24,2.95,16.21,8.76a1.22,1.22,0,0,0,1.74,0A26.07,26.07,0,0,1,69,14.94h.16a19.64,19.64,0,0,1,14.24,6,24.24,24.24,0,0,1,0,33.55l-32.14,31a1.9,1.9,0,0,1-2.64,0l-22-21.25a1,1,0,1,0-1.39,1.44Z"/><path d="M30.59,55.68a1,1,0,0,0,1.78-.17l7-17.9,6.14,24.31a1,1,0,0,0,.85.75h.12a1,1,0,0,0,.89-.54l7.53-14.42,3.46,6.17a1,1,0,0,0,.87.51h9.29a1,1,0,0,0,0-2h-8.7l-4.08-7.27a1,1,0,0,0-1.76,0L46.76,58.88,40.5,34.08A1,1,0,0,0,38.6,34l-7.37,19-5.08-8.1a1,1,0,0,0-.85-.47h0a1,1,0,0,0-.85.47L19.8,52.39H12.15a1,1,0,0,0,0,2h8.2a1,1,0,0,0,.85-.47l4.11-6.66Z"/><text x="0" y="115" fill="#000000" font-size="5px" font-weight="bold" font-family="'Helvetica Neue', Helvetica, Arial-Unicode, Arial, Sans-serif">Created by Misha</text><text x="0" y="120" fill="#000000" font-size="5px" font-weight="bold" font-family="'Helvetica Neue', Helvetica, Arial-Unicode, Arial, Sans-serif">from the Noun Project</text></svg>