<svg xmlns="http://www.w3.org/2000/svg" xmlns:xlink="http://www.w3.org/1999/xlink" version="1.1" x="0px" y="0px" viewBox="0 0 144.083 180" enable-background="new 0 0 144.083 144" xml:space="preserve"><path d="M65.523,88.48l56.138-56.138l-9.609-9.609L55.914,78.871L45.516,68.474c-1.416-1.417-3.3-2.197-5.304-2.197  c-2.004,0.001-3.887,0.781-5.303,2.197L22.421,80.962l2.121,2.121l12.488-12.488c0.85-0.85,1.979-1.318,3.182-1.318  s2.332,0.468,3.182,1.318l4.597,4.597L32.32,90.861l2.121,2.121l15.671-15.67l7.425,7.424l-15.67,15.671l2.121,2.121l15.67-15.671  l7.425,7.426l-15.671,15.67l2.121,2.121l15.671-15.67l3.889,3.888c1.754,1.755,1.754,4.61,0,6.365l-12.487,12.488l2.121,2.121  l12.487-12.488c2.924-2.924,2.924-7.683,0-10.607L65.523,88.48z M112.051,26.976l5.367,5.367l-9.836,9.836l-5.367-5.368  L112.051,26.976z M58.035,80.992l42.06-42.061l5.367,5.368l-42.06,42.06L58.035,80.992z"/><text x="0" y="159" fill="#000000" font-size="5px" font-weight="bold" font-family="'Helvetica Neue', Helvetica, Arial-Unicode, Arial, Sans-serif">Created by Chanut is Industries</text><text x="0" y="164" fill="#000000" font-size="5px" font-weight="bold" font-family="'Helvetica Neue', Helvetica, Arial-Unicode, Arial, Sans-serif">from the Noun Project</text></svg>