<svg xmlns="http://www.w3.org/2000/svg" xmlns:xlink="http://www.w3.org/1999/xlink" version="1.1" x="0px" y="0px" viewBox="0 0 100 125" style="enable-background:new 0 0 100 100;" xml:space="preserve"><path d="M75,55.8c-0.3-0.4-1-0.5-1.4-0.2c-0.4,0.3-0.5,1-0.2,1.4l1.8,2.2c0.2,0.2,0.5,0.4,0.8,0.4c0.2,0,0.4-0.1,0.6-0.2  c0.4-0.3,0.5-1,0.2-1.4L75,55.8z"/><path d="M84.7,47.1c-0.5-0.2-1.1,0.1-1.3,0.6c-0.2,0.5,0.1,1.1,0.6,1.3c5.4,2.1,9,7.4,9,13.2c0,7.8-6.3,14.1-14.1,14.1  c-6.8,0-12.7-4.9-13.9-11.6c-0.1-0.5-0.6-0.9-1.2-0.8c-0.5,0.1-0.9,0.6-0.8,1.2c1.4,7.6,8.1,13.2,15.8,13.2  c8.9,0,16.1-7.2,16.1-16.1C95,55.6,90.8,49.5,84.7,47.1z"/><ellipse transform="matrix(0.5856 -0.8106 0.8106 0.5856 -17.7358 89.6966)" cx="78.9" cy="62.2" rx="2" ry="2"/><ellipse transform="matrix(0.5865 -0.81 0.81 0.5865 -41.637 42.8375)" cx="21.1" cy="62.2" rx="2" ry="2"/><path d="M37.2,60.4c-0.1-0.5-0.6-0.9-1.1-0.9c-0.5,0.1-0.9,0.6-0.9,1.1c0.1,0.5,0.1,1,0.1,1.5c0,7.8-6.3,14.1-14.1,14.1S7,70,7,62.2  s6.3-14.1,14.1-14.1c4.2,0,8.1,1.8,10.8,5c0.1,0.2,0.3,0.4,0.5,0.6c0.3,0.4,1,0.5,1.4,0.2c0.4-0.3,0.5-1,0.2-1.4  c-0.1-0.2-0.4-0.5-0.5-0.7c-3.1-3.6-7.5-5.7-12.3-5.7C12.2,46.1,5,53.3,5,62.2s7.2,16.1,16.1,16.1s16.1-7.2,16.1-16.1  C37.2,61.6,37.2,61,37.2,60.4L37.2,60.4z"/><path d="M84.9,34c-2.1-3.1-14.1-11.2-15.5-12.1c-0.4-0.3-1-0.2-1.4,0.2c-1.2,1.5-2.5,5.3,0.4,8.6c0.4,0.4,1,0.4,1.4,0.1  c0.4-0.4,0.4-1,0.1-1.4c-1.8-2-1.3-4.1-0.8-5.2c4.1,2.8,12.6,8.8,14.1,11c2.1,3.1,2,5.6-0.5,7.7c-2.2,1.8-22.3,18.5-25,20.6H43.2  c0.2-1.2,0.3-3-0.4-4.6c-0.2-0.5-0.8-0.7-1.3-0.5c-0.5,0.2-0.7,0.8-0.5,1.3c0.8,1.8,0.1,4.5,0.1,4.5c-0.1,0.3,0,0.6,0.2,0.9  c0.2,0.2,0.5,0.4,0.8,0.4h16.1c0.2,0,0.5-0.1,0.6-0.2C59,65,81.7,46.2,84,44.3C87.3,41.6,87.6,37.9,84.9,34z"/><path d="M18.2,40.6c0.2,0.3,0.5,0.5,0.9,0.5c14.1-0.9,18.1,8.5,18.2,9c0.2,0.4,0.5,0.6,0.9,0.6c0.1,0,0.2,0,0.4-0.1  c0.5-0.2,0.8-0.8,0.6-1.3c0-0.1-1.2-2.9-4.3-5.5c-2.7-2.3-7.6-5-15.4-4.7l-5.4-8.9l9.3,2.1c0.5,0.3,1.5,1,1.5,1.7v1.3  c0,0.5,0.4,1,1,1l17.5,3.7c0.4,0.1,0.8-0.1,1-0.4c0.1-0.1,6.7-9.1,15.7-5.7c8.2,3,11.7,4.8,12.5,5.2c-1.5,1.5-4.2,3.2-9.2,4.3  c-6,1.3-11.2,4.1-13.5,5.4c-0.6-2.2-2.6-4.9-7.2-4.9c0,0,0,0,0,0c-0.6,0-1,0.4-1,1c0,0.6,0.4,1,1,1c5.2,0,5.5,4.1,5.5,4.5  c0,0.4,0.2,0.7,0.5,0.9c0.1,0.1,0.3,0.1,0.5,0.1c0.2,0,0.4-0.1,0.6-0.2c0.1,0,6.5-4.3,14.1-5.9c12.9-2.8,12.5-9.7,12.5-10  c0-0.5-0.5-0.9-1.1-0.9c-0.5,0-1,0.5-0.9,1.1c0,0.1,0,0.9-0.6,2c-0.3-0.2-3.6-2-13-5.5c-9-3.3-15.9,3.9-17.6,5.9L27,34.4v-0.5  c0-2.1-2.4-3.4-2.7-3.5c-0.1,0-0.1-0.1-0.2-0.1l-11.7-2.6c-0.4-0.1-0.8,0.1-1,0.4c-0.2,0.3-0.3,0.8,0,1.1L18.2,40.6z"/><path d="M40.1,53.5l-14.7,5.9c-0.5,0.2-0.8,0.8-0.6,1.3c0.2,0.4,0.5,0.6,0.9,0.6c0.1,0,0.2,0,0.4-0.1l14.7-5.9  c0.5-0.2,0.8-0.8,0.6-1.3C41.2,53.5,40.7,53.3,40.1,53.5z"/><text x="0" y="115" fill="#000000" font-size="5px" font-weight="bold" font-family="'Helvetica Neue', Helvetica, Arial-Unicode, Arial, Sans-serif">Created by Hamfif</text><text x="0" y="120" fill="#000000" font-size="5px" font-weight="bold" font-family="'Helvetica Neue', Helvetica, Arial-Unicode, Arial, Sans-serif">from the Noun Project</text></svg>