<svg xmlns="http://www.w3.org/2000/svg" xmlns:xlink="http://www.w3.org/1999/xlink" version="1.0" x="0px" y="0px" viewBox="0 0 100 125" enable-background="new 0 0 100 100" xml:space="preserve"><g><g><path d="M53.3847847,15.9214001c-0.0326004,0-0.0600014,0.0153999-0.0917015,0.0185003    c-0.0822983-0.0028-0.1634979-0.0142002-0.2481995,0.0043993l-21.6924,4.7212009    c-0.0312996,0.0068989-0.0544834,0.0275993-0.0844841,0.0370998c-0.0659161,0.0208988-0.1253147,0.0474987-0.184515,0.0809994    c-0.0554848,0.0312004-0.1064014,0.0634003-0.1542015,0.1039009c-0.0493984,0.0415993-0.0906982,0.0868988-0.1311989,0.1371994    c-0.0403004,0.0501003-0.0755997,0.0998993-0.1056995,0.1567993c-0.0293007,0.0552998-0.0501003,0.1117001-0.0687008,0.1725006    c-0.0202007,0.0653992-0.0338001,0.1296005-0.0401993,0.1989002c-0.0029011,0.0310993-0.0181007,0.0578995-0.0181007,0.0896988    v20.0266018c-1.1690998-1.1247025-2.7535992-1.8206024-4.5-1.8206024c-3.5839996,0-6.5,2.9160004-6.5,6.5s2.9160004,6.5,6.5,6.5    s6.5-2.9160004,6.5-6.5V22.4482994L52.3847847,18.1348v18.8132019c-1.1692009-1.1247025-2.7536011-1.8206024-4.5-1.8206024    c-3.5839996,0-6.5,2.9160995-6.5,6.5c0,3.5839996,2.9160004,6.5,6.5,6.5s6.5-2.9160004,6.5-6.5V16.9214001    C54.3847847,16.3691006,53.9374847,15.9214001,53.3847847,15.9214001z M26.0653839,50.8485985c-2.4813843,0-4.5-2.0184975-4.5-4.5    c0-2.4813995,2.0186157-4.5,4.5-4.5c2.4815006,0,4.5,2.0186005,4.5,4.5    C30.5653839,48.830101,28.5468845,50.8485985,26.0653839,50.8485985z M47.8847847,46.1273994c-2.4815025,0-4.5-2.0185013-4.5-4.5    c0-2.4813995,2.0184975-4.5,4.5-4.5c2.4813995,0,4.5,2.0186005,4.5,4.5    C52.3847847,44.1088982,50.3661842,46.1273994,47.8847847,46.1273994z"/><path d="M47.6005821,58.1987c-1.732399-1.6831017-3.6571999-3.2030983-5.7196999-4.5185013    c-0.3076973-0.1947975-0.6992989-0.2084999-1.0185966-0.033699c-0.3202858,0.1758003-0.5195007,0.5116997-0.5195007,0.8768997    v20.0266037c-1.1692009-1.1246033-2.7536011-1.8205032-4.5-1.8205032c-3.5839996,0-6.5,2.9160004-6.5,6.5s2.9160004,6.5,6.5,6.5    s6.5-2.9160004,6.5-6.5V56.4062996c1.3719978,0.9832993,2.6669998,2.0643997,3.8652153,3.2275009    c1.0360832,1.0053978,2.1835823,2.2216988,2.8358841,3.6181984c1.3574982,2.9085999-0.2538834,7.6483994-1.0283012,9.9267044    c-0.1786995,0.5224991,0.1016006,1.0907974,0.6240005,1.2686005c0.5284157,0.1776962,1.0918007-0.1016006,1.2686005-0.625    c1.3086014-3.8467026,2.4442978-8.2110062,0.9482002-11.4165039C50.0663834,60.7158012,48.7675819,59.3306007,47.6005821,58.1987z     M35.8427849,83.7294998c-2.4815025,0-4.5-2.0186005-4.5-4.5c0-2.4814987,2.0184975-4.5,4.5-4.5    c2.4813995,0,4.5,2.0185013,4.5,4.5C40.3427849,81.7108994,38.3241844,83.7294998,35.8427849,83.7294998z"/><path d="M77.2323837,66.5214996c-0.400383-0.3804016-1.0322037-0.3638-1.4140015,0.0365982    c-1.0449982,1.1006012-2.4756012,2.6079025-3.9932022,3.2881012c-1.2626953,0.5649033-2.2841797,0.0586014-3.8485947-0.8129959    c-1.0625-0.5918045-2.1612015-1.2041016-3.4649048-1.314003c-3.3886795-0.2938995-6.0780983,2.4394989-7.8495979,4.2446976    c-0.3866997,0.3940048-0.3807983,1.0273056,0.0137024,1.4140015c0.1942978,0.1913986,0.447216,0.2866974,0.7002144,0.2866974    c0.2587852,0,0.5175858-0.1000977,0.7137833-0.2994003c1.5098-1.5380936,3.8037987-3.8631973,6.2539978-3.6527939    c0.875,0.0737,1.7421036,0.5565948,2.6601028,1.067894c1.5938034,0.8886032,3.4003983,1.8960037,5.6397018,0.8911057    c1.7342987-0.7778015,3.1776962-2.2109985,4.6259003-3.7363052C77.6493835,67.5346985,77.632782,66.9019012,77.2323837,66.5214996    z"/><path d="M65.2177811,58.6001015c3.5839996,0,6.5-2.9160004,6.5-6.5V27.3939991c0-0.5521984-0.4472961-1-1-1    c-0.5527802,0-1,0.4478016-1,1v20.026701c-1.1691971-1.1246986-2.7536011-1.8205986-4.5-1.8205986    c-3.5839996,0-6.4999962,2.9160004-6.4999962,6.5S61.6337814,58.6001015,65.2177811,58.6001015z M65.2177811,47.6001015    c2.4813995,0,4.5,2.0185966,4.5,4.5c0,2.4813995-2.0186005,4.5-4.5,4.5c-2.4814987,0-4.4999962-2.0186005-4.4999962-4.5    C60.7177849,49.6186981,62.7362823,47.6001015,65.2177811,47.6001015z"/></g></g><text x="0" y="115" fill="#000000" font-size="5px" font-weight="bold" font-family="'Helvetica Neue', Helvetica, Arial-Unicode, Arial, Sans-serif">Created by Yu luck</text><text x="0" y="120" fill="#000000" font-size="5px" font-weight="bold" font-family="'Helvetica Neue', Helvetica, Arial-Unicode, Arial, Sans-serif">from the Noun Project</text></svg>