<svg xmlns:dc="http://purl.org/dc/elements/1.1/" xmlns:cc="http://creativecommons.org/ns#" xmlns:rdf="http://www.w3.org/1999/02/22-rdf-syntax-ns#" xmlns:svg="http://www.w3.org/2000/svg" xmlns="http://www.w3.org/2000/svg" xmlns:sodipodi="http://sodipodi.sourceforge.net/DTD/sodipodi-0.dtd" xmlns:inkscape="http://www.inkscape.org/namespaces/inkscape" version="1.1" x="0px" y="0px" viewBox="0 0 100 125"><g transform="translate(0,-952.36218)"><path style="text-indent:0;text-transform:none;direction:ltr;block-progression:tb;baseline-shift:baseline;color:#000000;enable-background:accumulate;" d="M 53.817856,962.148 30.337093,981.47813 11.419851,992.4 c -9.152425,5.28416 -11.21148269,18.5811 -5.9545119,27.6865 5.2570149,9.1054 17.8020299,13.9706 26.9544759,8.6865 l 1.921482,-1.1094 21.890866,22.2911 c 0.308006,0.3137 0.833427,0.3851 1.213984,0.1652 l 10.392287,-6.0001 c 0.526633,-0.3037 0.639883,-1.133 0.213972,-1.5668 l -21.532615,-21.9206 4.952562,-2.8595 28.329906,-10.6186 c 0.531671,-0.2046 0.792326,-0.9185 0.516955,-1.4171 L 55.319196,962.43589 c -0.283936,-0.50578 -1.050513,-0.6528 -1.50134,-0.28789 z m 0.347392,2.2892 23.828164,41.2716 -26.592526,9.9404 -19.156201,-33.17953 z m 20.334653,-9.46685 -7.989037,13.85008 c -0.276154,0.47825 -0.115555,1.10214 0.362783,1.37827 0.478293,0.27615 1.102134,0.11552 1.378196,-0.36307 l 7.989037,-13.85009 c 0.276152,-0.47825 0.115554,-1.10213 -0.362784,-1.37826 -0.682113,-0.29404 -1.101996,-0.0538 -1.378195,0.36307 z m -62.08005,39.1617 18.186534,-10.5 18.999951,32.90885 -18.186534,10.5 c -7.981895,4.6084 -19.507448,0.2122 -24.2224026,-7.9544 -4.7149821,-8.1666 -2.7594539,-20.34609 5.2224516,-24.95445 z m 60.961503,-14.41158 c -0.478288,0.27614 -0.642173,0.88773 -0.366023,1.36603 0.276149,0.47831 0.887734,0.64216 1.366022,0.36602 l 12.124358,-6.99999 c 0.478288,-0.27614 0.642175,-0.88773 0.366024,-1.36603 -0.27615,-0.47831 -0.887738,-0.64217 -1.366023,-0.36602 z m 6.364659,11.33641 c -0.223627,0.18685 -0.372437,0.48176 -0.372456,0.79239 6e-6,0.55229 0.460009,1.00332 1.01226,1.00329 l 15.98909,0.006 c 0.552252,-3e-5 1.00329,-0.45997 1.003234,-1.01235 -6e-6,-0.55228 -0.460006,-1.0033 -1.01226,-1.00328 l -15.989039,-0.006 c -0.13805,3e-5 -0.267622,0.0286 -0.387263,0.0792 -0.08975,0.0379 -0.169193,0.078 -0.243568,0.14064 z m -43.618535,35.57552 8.606131,-4.9688 20.99524,21.3649 -8.606131,4.9687 z" fill="#000000" fill-opacity="1" stroke="none" marker="none" visibility="visible" display="inline" overflow="visible"/></g><text x="0" y="115" fill="#000000" font-size="5px" font-weight="bold" font-family="'Helvetica Neue', Helvetica, Arial-Unicode, Arial, Sans-serif">Created by unlimicon</text><text x="0" y="120" fill="#000000" font-size="5px" font-weight="bold" font-family="'Helvetica Neue', Helvetica, Arial-Unicode, Arial, Sans-serif">from the Noun Project</text></svg>