<svg xmlns="http://www.w3.org/2000/svg" xmlns:xlink="http://www.w3.org/1999/xlink" version="1.1" x="0px" y="0px" viewBox="0 0 105 131.25" style="enable-background:new 0 0 105 105;" xml:space="preserve"><path d="M29.7,77.4L29.7,77.4L29.7,77.4C29.7,77.4,29.7,77.4,29.7,77.4z M97.7,27.3L90,3.8c-0.1-0.4-0.4-0.7-0.7-0.9  c-0.3-0.2-0.7-0.3-1.1-0.3c-0.2,0-0.3,0-0.5,0.1l0,0L63.9,9.3c-0.8,0.2-1.4,0.9-1.4,1.8v0.4h0.1L63.1,49c0,0.3,0.1,0.5,0.3,0.7  c0.1,0.1,0.1,0.1,0.2,0.2c0,0,0,0,0,0c-1.2,2.9-2.6,5.3-4.4,7.3c-0.5,0.6-1.1,1.2-1.6,1.7l-0.7-3.2l0-0.2l0,0  c-0.1-0.2-0.2-0.4-0.4-0.6c-0.2-0.1-0.4-0.2-0.6-0.2c-0.2,0-0.5,0.1-0.7,0.3l0,0l-2.9,2.7c-0.2,0.2-0.3,0.5-0.3,0.8  c0,0.2,0.1,0.4,0.2,0.6c0.1,0.2,0.3,0.3,0.5,0.4l0,0l0,0l0.2,0.1l3,0.9c-2.9,2.4-6.3,4.1-9.9,5.6c0,0-0.1,0-0.1,0.1  c-0.8,0.3-1.6,0.6-2.4,0.9l0.4-2.4l0,0l0-0.1c0-0.3-0.1-0.5-0.3-0.7c-0.2-0.2-0.4-0.3-0.6-0.3c-0.1,0-0.3,0-0.3,0.1v0l-3.3,1.3h0  c-0.2,0-0.4,0.2-0.5,0.4c-0.1,0.2-0.2,0.4-0.2,0.6c0,0.3,0.1,0.6,0.3,0.8l0,0l0,0l1.8,1.4l1.1,0.9l0.2-1.3l-0.2,1.3L40.8,68  c-2.3,0.8-4.7,1.6-7,2.4c-2.2,0.8-4.4,1.6-6.5,2.6l0.2-2.3v0c0-0.3-0.1-0.5-0.3-0.7c-0.2-0.2-0.4-0.3-0.7-0.3c-0.1,0-0.3,0-0.4,0.1  l0,0l-2.8,1.3c-0.2,0.1-0.3,0.2-0.4,0.4c-0.1,0.2-0.1,0.3-0.1,0.5c0,0.3,0.1,0.6,0.4,0.8l0,0l0,0l1.9,1.3l0.8,0.5l-0.8-0.5  c-2.9,1.5-5.7,3.4-8.1,5.8c-2.4,2.3-4.5,5.2-6.2,8.8c-1.7,3.6-2.9,7.9-3.6,13.1c0,0.4,0.2,0.7,0.6,0.7c0.4,0,0.7-0.2,0.7-0.6  c0-0.3,0.1-0.5,0.1-0.8c0.7-4.8,1.9-8.8,3.4-12.1c2.9-6.1,7-10,11.8-12.8c0.7-0.4,1.3-0.7,2-1.1l-0.3,2.7v0c0,0.3,0.2,0.5,0.3,0.7  c0.2,0.2,0.4,0.3,0.7,0.3c0.1,0,0.3,0,0.4-0.1l2.8-1.3c0.2-0.1,0.3-0.2,0.4-0.4c0.1-0.2,0.1-0.3,0.1-0.5c0-0.3-0.1-0.6-0.4-0.8l0,0  l-2.3-1.5L27.1,74L26,73.2l1.1,0.8l0.4,0.3c2.5-1.2,5.1-2.2,7.8-3.1c2.2-0.8,4.4-1.5,6.5-2.2l-0.1,1l-0.4,2.6l0,0c0,0,0,0.1,0,0.1  c0,0.3,0.1,0.5,0.3,0.7c0.2,0.2,0.4,0.3,0.7,0.3c0.1,0,0.3,0,0.4-0.1l3.2-1.3l0,0c0.2-0.1,0.4-0.2,0.5-0.4c0.1-0.2,0.2-0.3,0.2-0.5  c0-0.3-0.1-0.6-0.3-0.8l0,0l-2.8-2.1l0,0c0,0,0,0,0,0c3.3-1.2,6.6-2.6,9.6-4.4c1.4-0.8,2.7-1.7,3.9-2.8l0.8,3.9l0,0  c0.1,0.2,0.2,0.4,0.4,0.6c0.2,0.1,0.4,0.2,0.6,0.2c0.2,0,0.5-0.1,0.7-0.3l0,0l3-2.7l0,0c0.2-0.2,0.3-0.5,0.3-0.8  c0-0.2-0.1-0.4-0.2-0.6c-0.1-0.2-0.3-0.3-0.5-0.4l0,0L58.3,60c0.7-0.7,1.4-1.4,2-2.1c1.8-2.1,3.3-4.4,4.5-7.4c0.2,0,0.4,0,0.6,0h0  L97,29.6c0.5-0.3,0.8-1,0.8-1.6C97.8,27.8,97.8,27.5,97.7,27.3z M29.2,76.2L29.2,76.2L29.2,76.2L29.2,76.2z M27.1,75.5l1.5,1  l-1.7,0.8L27.1,75.5z M26.4,77.6L26.4,77.6L26.4,77.6L26.4,77.6z M25.9,73.1l-1.5-1l1.7-0.8L25.9,73.1z M26.6,71L26.6,71L26.6,71  L26.6,71z M42.3,72.3L42.3,72.3L42.3,72.3L42.3,72.3z M42,67.3l-1.9-1.4l2.2-0.9L42,67.3z M44.9,71.2l-2.2,0.9l0.3-2.3L44.9,71.2z   M53.4,58.4l2.3-2.2l0.6,3L53.4,58.4z M61.2,62.2l-2.3,2.2l-0.6-3L61.2,62.2z M64.4,48l-0.5-36.7l15.6,8.3h0L64.4,48z M96.3,28.3  L96,28.5L65.7,48.3l14.9-28L96,28.5L96.3,28.3c0.2-0.1,0.2-0.3,0.2-0.4c0-0.1,0-0.1,0-0.2l-0.2-0.5l-15.1-8l7.7-14.5l-0.2-0.5  c0-0.1-0.1-0.2-0.2-0.3c-0.1-0.1-0.2-0.1-0.3-0.1c-0.1,0-0.1,0-0.1,0l0,0l-0.2,0.1l-7.8,14.6l-15.3-8.1l-0.6,0.1  c-0.2,0.1-0.4,0.4-0.4,0.4c0,0,0.2-0.4,0.4-0.4l0.6-0.1l23.1-6.5l0.2,0l0,0c0,0,0.1,0,0.1,0c0.1,0,0.2,0,0.3,0.1  c0.1,0.1,0.2,0.2,0.2,0.3l0.2,0.5l7.4,22.5l0.2,0.5c0,0.1,0,0.1,0,0.2C96.5,28,96.4,28.2,96.3,28.3z"/><text x="0" y="120" fill="#000000" font-size="5px" font-weight="bold" font-family="'Helvetica Neue', Helvetica, Arial-Unicode, Arial, Sans-serif">Created by Maxim Samos</text><text x="0" y="125" fill="#000000" font-size="5px" font-weight="bold" font-family="'Helvetica Neue', Helvetica, Arial-Unicode, Arial, Sans-serif">from the Noun Project</text></svg>