<svg xmlns="http://www.w3.org/2000/svg" data-name="Layer 1" viewBox="0 0 100 125" x="0px" y="0px"><title>07</title><g data-name="Group"><path data-name="Path" d="M90.9,67.3,66.7,82.7a5.3,5.3,0,0,1-4,.7L29.4,76.5,9.4,92.1l1.2,1.6,19.3-15,32.4,6.7a7.3,7.3,0,0,0,5.4-1L92,69a6.1,6.1,0,0,0,1.9-8.3h-.1a6.2,6.2,0,0,0-8.5-2l-19,11.6L50,68.7l-2.5-5.7,13.1-.8a6.1,6.1,0,0,0,5.7-5.9h0A6.1,6.1,0,0,0,60.8,50L36.7,48a7.3,7.3,0,0,0-4.4.9L5.2,64.7l1,1.7,27-15.7a5.4,5.4,0,0,1,3.3-.6l24.2,2a4.1,4.1,0,0,1,3.8,4h0a4.1,4.1,0,0,1-3.9,4l-16,.9,4.1,9.5,18.2,1.7.3-.2L86.3,60.3a4.2,4.2,0,0,1,5.8,1.4h.1A4.1,4.1,0,0,1,90.9,67.3Z"/><path data-name="Compound Path" d="M36.2,39.3H94.4V6.3H36.2Zm2-10.1h1.2a7.1,7.1,0,0,1,7,7v1H38.2ZM48.5,8.3H82.1v1a9.1,9.1,0,0,0,9,9h1.2v8.9H91.2a9.1,9.1,0,0,0-9,9v1H48.5v-1a9.1,9.1,0,0,0-9-9H38.2V18.4h1.2a9.1,9.1,0,0,0,9-9Zm35.7,29v-1a7.1,7.1,0,0,1,7-7h1.2v8.1Zm8.2-20.9H91.2a7.1,7.1,0,0,1-7-7v-1h8.2ZM46.5,8.3v1a7.1,7.1,0,0,1-7,7H38.2V8.3Z"/><path data-name="Compound Path" d="M65.3,33.6A10.8,10.8,0,1,0,54.5,22.8,10.8,10.8,0,0,0,65.3,33.6Zm0-19.6a8.8,8.8,0,1,1-8.8,8.8A8.8,8.8,0,0,1,65.3,14Z"/></g><text x="0" y="115" fill="#000000" font-size="5px" font-weight="bold" font-family="'Helvetica Neue', Helvetica, Arial-Unicode, Arial, Sans-serif">Created by Aiden Icons</text><text x="0" y="120" fill="#000000" font-size="5px" font-weight="bold" font-family="'Helvetica Neue', Helvetica, Arial-Unicode, Arial, Sans-serif">from the Noun Project</text></svg>