<svg xmlns="http://www.w3.org/2000/svg" xmlns:xlink="http://www.w3.org/1999/xlink" version="1.1" x="0px" y="0px" viewBox="0 0 52 65" style="enable-background:new 0 0 52 52;" xml:space="preserve"><style type="text/css">
	.st0{fill:none;stroke:#000000;stroke-linecap:round;stroke-linejoin:round;stroke-miterlimit:10;}
	.st1{fill:none;}
</style><g><g><path d="M39.7833061,49.4945374c-9.8222656,0-19.3769531-3.8740234-26.390625-10.8876953    C4.9839892,30.1981506,1.0879931,18.1366272,2.9708056,6.3417048c0.2773438-1.7392578,1.6323242-3.0942383,3.3710938-3.371582    C18.1368217,1.09024,30.1988335,4.9837947,38.6070366,13.3924856l0,0l0,0    c8.4086914,8.4077158,12.3046875,20.4697266,10.4223633,32.2651367c-0.2773438,1.7397461-1.6323242,3.0942383-3.371582,3.3710938    C43.7012749,49.341217,41.7364311,49.4945374,39.7833061,49.4945374z M12.2168989,3.5043025    c-1.9018555,0-3.8125,0.1494141-5.717773,0.453125C5.1885791,4.1669002,4.167583,5.1878963,3.9581103,6.4989314    C2.1260791,17.9784241,5.9170947,29.7171936,14.0997114,37.8998108s19.9179688,11.9746094,31.4008789,10.1416016    c1.3110352-0.2089844,2.3320313-1.2299805,2.5415039-2.5410156c1.831543-11.4804688-1.9594727-23.21875-10.1420898-31.4008789l0,0    C31.0757866,7.2748103,21.7754936,3.5043025,12.2168989,3.5043025z"/></g><g><path d="M12.7364302,13.2362356c-0.1279297,0-0.2558594-0.0488281-0.3535156-0.1464844L4.108501,4.8153377    c-0.1953125-0.1953125-0.1953125-0.5117188,0-0.7070313s0.5117188-0.1953125,0.7070313,0l8.2744141,8.2744141    c0.1953125,0.1953125,0.1953125,0.5117188,0,0.7070313C12.9922895,13.1874075,12.8643599,13.2362356,12.7364302,13.2362356z"/></g><g><path d="M47.5377007,48.0375061c-0.1279297,0-0.2558594-0.0488281-0.3535156-0.1464844l-8.2744141-8.2744141    c-0.1953125-0.1953125-0.1953125-0.5117188,0-0.7070313s0.5117188-0.1953125,0.7070313,0l8.2744141,8.2744141    c0.1953125,0.1953125,0.1953125,0.5117188,0,0.7070313C47.79356,47.988678,47.6656303,48.0375061,47.5377007,48.0375061z"/></g><g><g><path d="M19.7994194,28.0179749c-0.1279297,0-0.2558594-0.0488281-0.3535156-0.1464844     c-0.1953125-0.1953125-0.1953125-0.5117188,0-0.7070313l7.7192383-7.71875c0.1953125-0.1953125,0.5117188-0.1953125,0.7070313,0     s0.1953125,0.5117188,0,0.7070313l-7.7192383,7.71875C20.0552788,27.9691467,19.9273491,28.0179749,19.7994194,28.0179749z"/></g><g><path d="M24.4815483,32.7001038c-0.1279297,0-0.2558594-0.0488281-0.3535156-0.1464844     c-0.1953125-0.1953125-0.1953125-0.5117188,0-0.7070313l7.7192383-7.71875c0.1953125-0.1953125,0.5117188-0.1953125,0.7070313,0     s0.1953125,0.5117188,0,0.7070313l-7.7192383,7.71875C24.7374077,32.6512756,24.609478,32.7001038,24.4815483,32.7001038z"/></g><g><path d="M29.1636772,37.3822327c-0.1279297,0-0.2558594-0.0488281-0.3535156-0.1464844     c-0.1953125-0.1953125-0.1953125-0.5117188,0-0.7070313l7.71875-7.7192383c0.1953125-0.1953125,0.5117188-0.1953125,0.7070313,0     s0.1953125,0.5117188,0,0.7070313l-7.71875,7.7192383C29.4195366,37.3334045,29.2916069,37.3822327,29.1636772,37.3822327z"/></g><g><path d="M15.1172895,23.3358459c-0.1279297,0-0.2558594-0.0488281-0.3535156-0.1464844     c-0.1953125-0.1953125-0.1953125-0.5117188,0-0.7070313l7.7192392-7.718751c0.1953125-0.1953125,0.5117188-0.1953125,0.7070313,0     s0.1953125,0.5117188,0,0.7070313l-7.7192392,7.718751C15.3731489,23.2870178,15.2452192,23.3358459,15.1172895,23.3358459z"/></g></g><g><path d="M35.1241264,35.6234436c-0.1279297,0-0.2558594-0.0488281-0.3535156-0.1464844L16.5225639,17.2289124    c-0.1953125-0.1953125-0.1953125-0.5117188,0-0.7070313s0.5117188-0.1953125,0.7070313,0L35.4776421,34.769928    c0.1953125,0.1953125,0.1953125,0.5117188,0,0.7070313C35.3799858,35.5746155,35.2520561,35.6234436,35.1241264,35.6234436z"/></g></g><text x="0" y="67" fill="#000000" font-size="5px" font-weight="bold" font-family="'Helvetica Neue', Helvetica, Arial-Unicode, Arial, Sans-serif">Created by Dinosoft Labs</text><text x="0" y="72" fill="#000000" font-size="5px" font-weight="bold" font-family="'Helvetica Neue', Helvetica, Arial-Unicode, Arial, Sans-serif">from the Noun Project</text></svg>