<svg xmlns:dc="http://purl.org/dc/elements/1.1/" xmlns:cc="http://creativecommons.org/ns#" xmlns:rdf="http://www.w3.org/1999/02/22-rdf-syntax-ns#" xmlns:svg="http://www.w3.org/2000/svg" xmlns="http://www.w3.org/2000/svg" xmlns:sodipodi="http://sodipodi.sourceforge.net/DTD/sodipodi-0.dtd" xmlns:inkscape="http://www.inkscape.org/namespaces/inkscape" version="1.1" x="0px" y="0px" viewBox="0 0 100 125"><g transform="translate(0,-952.36218)"><path d="m 10,966.36217 c -2.75271,0 -5,2.2473 -5,5 l 0,50.00003 c 0,2.7527 2.24729,5 5,5 l 32,0 0,10 -4,0 c -0.55228,0 -1,0.4477 -1,1 0,0.5523 0.44772,1 1,1 l 24,0 c 0.55228,0 1,-0.4477 1,-1 0,-0.5523 -0.44772,-1 -1,-1 l -4,0 0,-10 32,0 c 2.75271,0 5,-2.2473 5,-5 l 0,-50.00003 c 0,-2.7527 -2.24729,-5 -5,-5 z m 0,2 80,0 c 1.67931,0 3.00541,1.32071 3,3 l 0,41.00003 -86,0 0,-41.00003 c 0,-1.6793 1.32069,-3 3,-3 z m 70.5,3 c -0.25593,0 -0.49224,0.11725 -0.6875,0.3125 -0.39052,0.39052 -0.39052,1.01575 0,1.40625 l 8.46875,8.5 c 0.39052,0.39052 1.04699,0.39052 1.4375,0 0.39055,-0.39049 0.39051,-1.04697 0,-1.4375 l -8.5,-8.46875 c -0.19525,-0.19524 -0.46282,-0.3125 -0.71875,-0.3125 z m -4.21875,2.84375 c -0.25593,-10e-6 -0.52349,0.086 -0.71875,0.28125 -0.39052,0.39053 -0.39049,1.04701 0,1.4375 l 9.90625,9.875 c 0.39053,0.39053 1.01572,0.39048 1.40625,0 0.39052,-0.39052 0.3905,-1.01575 0,-1.40625 l -9.90625,-9.90625 c -0.19526,-0.19525 -0.43157,-0.28124 -0.6875,-0.28125 z M 7,1014.3622 l 86,0 0,7 c 0,1.6793 -1.32069,3 -3,3 l -80,0 c -1.67931,0 -3,-1.3207 -3,-3 z m 43,3 c -1.10457,0 -2,0.8954 -2,2 0,1.1046 0.89543,2 2,2 1.10457,0 2,-0.8954 2,-2 0,-1.1046 -0.89543,-2 -2,-2 z m -6,9 12,0 0,10 -12,0 z" style="text-indent:0;text-transform:none;direction:ltr;block-progression:tb;baseline-shift:baseline;color:#000000;enable-background:accumulate;" fill="#000000" fill-opacity="1" stroke="none" marker="none" visibility="visible" display="inline" overflow="visible"/></g><text x="0" y="115" fill="#000000" font-size="5px" font-weight="bold" font-family="'Helvetica Neue', Helvetica, Arial-Unicode, Arial, Sans-serif">Created by unlimicon</text><text x="0" y="120" fill="#000000" font-size="5px" font-weight="bold" font-family="'Helvetica Neue', Helvetica, Arial-Unicode, Arial, Sans-serif">from the Noun Project</text></svg>