<svg xmlns="http://www.w3.org/2000/svg" xmlns:xlink="http://www.w3.org/1999/xlink" version="1.1" x="0px" y="0px" viewBox="0 0 100 125" style="enable-background:new 0 0 100 100;" xml:space="preserve"><path d="M64.4,43.3l6.3-5.7l0,0c3.2-3.2,5.1-7.4,5.4-11.9c0-0.5-0.1-0.9-0.5-1.2c-0.3-0.3-0.8-0.5-1.2-0.5  c-4.5,0.3-8.8,2.2-11.9,5.4l0,0l-5.7,6.3L34.8,20l-5.1,5.1l19.2,19.2L35,59.7l-11.3-4.5L20,58.9l12,7.3c0.2,0.4,0.4,0.8,0.7,1.1  c0.3,0.3,0.7,0.6,1.1,0.7l7.3,12l3.8-3.8L40.3,65l15.4-13.8l19.2,19.2l5.1-5.1L64.4,43.3z M30.5,25.1l4.3-4.3l21.4,15.3l-7,7.8  L30.5,25.1z M31.7,65.3L21,58.8l2.9-2.9l10.7,4.3l-1.9,2.2C31.8,63.3,31.5,64.4,31.7,65.3z M44,76.1L41.2,79l-6.5-10.6  c0.2,0,0.3,0,0.5,0c0.8,0,1.6-0.3,2.4-1l2.2-1.9L44,76.1z M37.2,66.9c-1.4,1.3-3,0.9-4-0.1c-1-1-1.4-2.6-0.1-4l29.8-33.1  c3.1-3.1,7.2-4.9,11.5-5.2c0.3,0,0.6,0.1,0.7,0.3c0.2,0.2,0.3,0.5,0.3,0.7c-0.3,4.3-2.1,8.4-5.2,11.5L37.2,66.9z M56.1,50.7l7.8-7  l15.3,21.4l-4.3,4.3L56.1,50.7z"/><text x="0" y="115" fill="#000000" font-size="5px" font-weight="bold" font-family="'Helvetica Neue', Helvetica, Arial-Unicode, Arial, Sans-serif">Created by Mello</text><text x="0" y="120" fill="#000000" font-size="5px" font-weight="bold" font-family="'Helvetica Neue', Helvetica, Arial-Unicode, Arial, Sans-serif">from the Noun Project</text></svg>