<svg xmlns="http://www.w3.org/2000/svg" data-name="Layer 2" viewBox="0 0 100 125" x="0px" y="0px"><title>Artboard 15</title><path d="M34.11,34.46a5.75,5.75,0,0,0,5.73-5.17l.3-2.93A5.77,5.77,0,0,0,34.41,20h-.61a5.77,5.77,0,0,0-5.73,6.36l.3,2.93A5.75,5.75,0,0,0,34.11,34.46ZM31,23.24A3.72,3.72,0,0,1,33.81,22h.61a3.77,3.77,0,0,1,3.75,4.15l-.3,2.93a3.77,3.77,0,0,1-7.49,0l-.3-2.93A3.72,3.72,0,0,1,31,23.24ZM30.79,35h4A6.86,6.86,0,0,1,39,36.47L44.77,41h8a3.5,3.5,0,1,1,0,7H43.71a1,1,0,0,1-.36-.07L39,46.23V57h3.69a8.62,8.62,0,0,1,8.24,6.19l4.58,15.86a1,1,0,0,1-.68,1.24,1,1,0,0,1-.28,0,1,1,0,0,1-1-.72L49,63.75A6.61,6.61,0,0,0,42.69,59H38a1,1,0,0,1-1-1V46a1,1,0,0,1,.15-.49L34,44.28a1,1,0,1,1,.73-1.86L43.9,46h8.88a1.5,1.5,0,1,0,0-3H44.42a1,1,0,0,1-.62-.22L37.8,38a4.85,4.85,0,0,0-3-1h-4A2.79,2.79,0,0,0,28,39.79V58.12A6.89,6.89,0,0,0,34.88,65h7.33a1,1,0,0,1,.92.6l5.59,12.79a1,1,0,1,1-1.83.8L41.56,67H34.88A8.89,8.89,0,0,1,26,58.12V39.79A4.79,4.79,0,0,1,30.79,35ZM70,79V53H43a1,1,0,0,1,0-2H76a1,1,0,0,1,0,2H72V79a1,1,0,0,1-2,0Zm8-47.47-10.07,16a1,1,0,0,1-.85.47H58a1,1,0,0,1,0-2h8.52l8.81-14H54.17l-5,7.95a1,1,0,0,1-1.69-1.07l5.29-8.41a1,1,0,0,1,.85-.47H77.14A1,1,0,0,1,78,31.53ZM56,35a1,1,0,0,1,0-2H70a1,1,0,0,1,0,2Zm-2,1H68a1,1,0,0,1,0,2H54a1,1,0,0,1,0-2Zm2.67,4a1,1,0,0,1,1-1H66a1,1,0,0,1,0,2H57.67A1,1,0,0,1,56.67,40ZM24,44V57.63A11.38,11.38,0,0,0,35.37,69H41a1,1,0,0,1,0,2H35.37L35,71v7h4a1,1,0,0,1,0,2H29a1,1,0,0,1,0-2h4V70.78A13.38,13.38,0,0,1,22,57.63V44a1,1,0,0,1,2,0Z"/><text x="0" y="115" fill="#000000" font-size="5px" font-weight="bold" font-family="'Helvetica Neue', Helvetica, Arial-Unicode, Arial, Sans-serif">Created by Erman Tutan</text><text x="0" y="120" fill="#000000" font-size="5px" font-weight="bold" font-family="'Helvetica Neue', Helvetica, Arial-Unicode, Arial, Sans-serif">from the Noun Project</text></svg>