<svg xmlns="http://www.w3.org/2000/svg" xmlns:xlink="http://www.w3.org/1999/xlink" viewBox="0 0 100 125" version="1.1" x="0px" y="0px"><title>rings</title><desc>Created with Sketch.</desc><g stroke="none" stroke-width="1" fill="none" fill-rule="evenodd"><g fill="#000000"><path d="M69.4875979,33.2194385 L68.9324356,27.7197206 L70.9948947,27.2930225 L77.3221564,31.3718936 L77.7740569,33.4139438 L72.4591024,35.1938358 C71.5476796,34.4318993 70.5517896,33.7683522 69.4876025,33.2194408 L69.4875979,33.2194385 L69.4875979,33.2194385 Z M73.482973,36.1262656 L79.1399994,34.2129406 L78.4134868,30.6665888 L71.2177219,26 L67.6277925,26.7692914 L68.2251179,32.6357474 C66.3307773,31.8573736 64.2571707,31.4282994 62.0836987,31.4282994 C56.1665661,31.4282994 50.9896007,34.6084438 48.1549207,39.359068 L49.104634,40.0913511 C51.7153835,35.6202055 56.5507368,32.6182607 62.0836987,32.6182607 C70.3872115,32.6182607 77.1195651,39.3792626 77.1195651,47.7206413 C77.1195651,56.06202 70.3872115,62.8230219 62.0836987,62.8230219 C53.7801859,62.8230219 47.0478324,56.06202 47.0478324,47.7206413 C47.0478324,46.4695821 47.1992746,45.254073 47.50587,44.0066408 C47.50587,44.0066408 47.6491125,43.5059688 47.8923938,43.0064187 L46.8911288,42.1577105 C46.5895917,42.7534446 46.4496786,43.3452365 46.4496786,43.3452365 C46.06401,44.7375664 45.8578711,46.2049461 45.8578711,47.7206413 C45.8578711,56.718089 53.1218547,64.0129831 62.0836987,64.0129831 C71.0455427,64.0129831 78.3095263,56.718089 78.3095263,47.7206413 C78.3095263,43.1840767 76.4628517,39.080341 73.482973,36.1262656 L73.482973,36.1262656 L73.482973,36.1262656 Z M54.9757005,63.3048252 C52.1650486,69.7842695 45.7310343,74.3145041 38.2427111,74.3145041 C28.1669731,74.3145041 20,66.112778 20,55.9966963 C20,45.8806146 28.1669731,37.6788885 38.2427111,37.6788885 C48.3184491,37.6788885 56.4854222,45.8806146 56.4854222,55.9966963 C56.4854222,57.5572387 56.2910708,59.0722247 55.9253422,60.5185731 L54.822698,60.0186354 C55.1317475,58.7287145 55.2954609,57.3819189 55.2954609,55.9966963 C55.2954609,46.5366836 47.6601179,38.8688497 38.2427111,38.8688497 C28.8253043,38.8688497 21.1899613,46.5366836 21.1899613,55.9966963 C21.1899613,65.456709 28.8253043,73.1245428 38.2427111,73.1245428 C45.2251301,73.1245428 51.2278958,68.9093073 53.865269,62.8736957 L54.9757005,63.3048252 L54.9757005,63.3048252 L54.9757005,63.3048252 L54.9757005,63.3048252 Z"/></g></g><text x="0" y="115" fill="#000000" font-size="5px" font-weight="bold" font-family="'Helvetica Neue', Helvetica, Arial-Unicode, Arial, Sans-serif">Created by Rauan</text><text x="0" y="120" fill="#000000" font-size="5px" font-weight="bold" font-family="'Helvetica Neue', Helvetica, Arial-Unicode, Arial, Sans-serif">from the Noun Project</text></svg>